<?xml version="1.0" encoding="UTF-8" standalone="no"?>
<!-- Created with Inkscape (http://www.inkscape.org/) -->

<svg
   version="1.1"
   id="svg512"
   width="600"
   height="400"
   viewBox="0 0 600 400"
   sodipodi:docname="logocrepes1.svg"
   inkscape:export-filename="logocrepes.svg"
   inkscape:export-xdpi="96"
   inkscape:export-ydpi="96"
   inkscape:version="1.2.2 (732a01da63, 2022-12-09)"
   xmlns:inkscape="http://www.inkscape.org/namespaces/inkscape"
   xmlns:sodipodi="http://sodipodi.sourceforge.net/DTD/sodipodi-0.dtd"
   xmlns="http://www.w3.org/2000/svg"
   xmlns:svg="http://www.w3.org/2000/svg">
  <defs
     id="defs516" />
  <sodipodi:namedview
     id="namedview514"
     pagecolor="#505050"
     bordercolor="#eeeeee"
     borderopacity="1"
     inkscape:showpageshadow="0"
     inkscape:pageopacity="0"
     inkscape:pagecheckerboard="0"
     inkscape:deskcolor="#505050"
     showgrid="false"
     inkscape:zoom="2.05"
     inkscape:cx="290.97561"
     inkscape:cy="142.19512"
     inkscape:window-width="1920"
     inkscape:window-height="1005"
     inkscape:window-x="-9"
     inkscape:window-y="-9"
     inkscape:window-maximized="1"
     inkscape:current-layer="g518" />
  <g
     inkscape:groupmode="layer"
     inkscape:label="Image"
     id="g518">
    <path
       style="fill:#000000"
       d="m 270.23283,378.85072 c -0.37723,-0.37722 -2.67603,-0.58285 -5.10844,-0.45693 -3.53525,0.18299 -4.63647,-0.17074 -5.48867,-1.76311 -1.00956,-1.88638 -1.21587,-1.90608 -3.88982,-0.37144 -1.55304,0.89132 -3.57449,1.33248 -4.49212,0.98035 -2.5812,-0.9905 -2.09972,-6.78095 0.94071,-11.31345 l 2.60914,-3.88955 -3.02839,2.85973 c -1.6656,1.57284 -4.07644,4.83534 -5.35741,7.25 -2.58312,4.86923 -4.00872,5.40442 -6.17136,2.31683 -0.90842,-1.29695 -1.70074,-1.67145 -2.11572,-1 -0.92968,1.50426 -4.08105,1.33786 -5.4293,-0.28667 -0.6488,-0.78177 -2.20404,-1.15457 -3.65748,-0.87673 -3.01595,0.57654 -6.78992,-2.38821 -6.15086,-4.83198 0.3886,-1.48602 0.15075,-1.50776 -2.42701,-0.2218 -3.94799,1.96952 -8.15093,1.31444 -9.3682,-1.46015 -0.82921,-1.89005 -1.51102,-2.15254 -4.25441,-1.63788 -3.88413,0.72867 -8.25813,-1.67998 -8.25813,-4.54754 0,-1.67353 -0.33453,-1.76381 -2.91983,-0.78797 -3.19305,1.20524 -6.08017,-0.19901 -6.08017,-2.9573 0,-0.79012 -0.47558,-1.14265 -1.05684,-0.78341 -0.58125,0.35923 -2.15625,0.37722 -3.5,0.04 -3.41208,-0.85638 -3.2645,-5.10758 0.30684,-8.83866 l 2.75,-2.87302 -5.5,2.55853 c -6.63443,3.08624 -9.57129,3.23739 -11.23207,0.57806 -0.68696,-1.1 -2.00863,-2 -2.93705,-2 -4.74505,0 -6.44464,-7.13533 -2.56723,-10.77796 3.24188,-3.04559 9.48161,-5.43714 12.05975,-4.62224 3.37045,1.06532 8.6766,5.46244 8.6766,7.19015 0,0.85391 -0.7875,2.488 -1.75,3.63131 -1.74064,2.06763 -1.73827,2.06882 0.44413,0.22431 1.20678,-1.01994 2.33178,-2.81994 2.5,-4 0.40139,-2.8156 5.80587,-3.75763 5.80587,-1.01199 0,1.37388 0.26667,1.49975 1.2,0.56642 1.6322,-1.6322 5.30274,-1.5085 8.79291,0.29633 2.18317,1.12897 3.07375,1.20483 3.62739,0.30902 0.40359,-0.65302 0.24002,-1.35191 -0.3635,-1.55308 -0.60351,-0.20117 -4.62068,-2.08826 -8.92705,-4.19352 -21.65173,-10.58494 -48.40422,-36.41266 -59.4218,-57.36773 -6.58368,-12.52197 -16.06885,-32.67882 -20.03585,-42.57805 -13.21136,-32.96753 -12.68166,-62.54006 1.77531,-99.11301 10.15339,-25.68582 31.67525,-59.976584 47.9733,-76.435812 21.70408,-21.918708 46.01126,-32.460316 82.15932,-35.631089 18.11838,-1.589276 56.31239,0.496003 77.21997,4.215979 24.94746,4.438772 42.08066,16.493268 70.14306,49.350917 4.69733,5.5 12.60382,13.708284 17.56998,18.240631 10.10023,9.217944 14.2398,15.848094 18.58042,29.759374 5.30779,17.01095 6.20196,25.45531 6.19459,58.5 -0.007,33.07071 -1.39144,48.38565 -6.03141,66.7387 -3.27918,12.97052 -7.86265,20.97647 -19.0424,33.2613 -5.25551,5.775 -12.83623,14.35304 -16.84604,19.06232 l -7.29057,8.56231 1.86118,2.29847 c 1.02366,1.26416 1.86119,2.89532 1.86119,3.62481 0,0.96016 0.9772,1.16777 3.53946,0.75197 2.81651,-0.45705 4.04203,-0.10222 6,1.73719 2.04727,1.92331 2.46054,2.03034 2.46054,0.63724 0,-1.76403 -3.37187,-5.67431 -4.89301,-5.67431 -1.74142,0 -2.17156,-3.364 -0.62757,-4.90799 1.25446,-1.25446 1.92294,-1.32183 3.47826,-0.35051 1.63018,1.01806 2.0213,0.90008 2.55122,-0.76955 0.95446,-3.00724 5.09254,-2.54878 7.02282,0.77805 0.87757,1.5125 1.30366,1.85 0.94686,0.75 -1.65054,-5.08851 -1.67676,-8.54859 -0.0832,-10.98063 1.79771,-2.74365 5.34134,-3.36912 6.21335,-1.09669 0.30027,0.78248 1.18614,1.66835 1.96862,1.96862 2.57388,0.98769 1.52129,-2.48523 -1.57732,-5.20421 -4.8125,-4.2229 -3.0828,-9.00151 2.31746,-6.4024 1.2004,0.57774 3.60288,1.49943 5.33885,2.0482 l 3.15631,0.99775 -2.01247,-4.54954 c -2.75631,-6.23108 -1.60107,-10.7811 2.73728,-10.7811 1.62941,0 2.88221,0.46607 2.784,1.03571 -0.0982,0.56965 0.68928,1.03572 1.75,1.03572 1.06071,0 1.91856,-0.24107 1.90633,-0.53572 -0.0486,-1.17034 -3.58115,-4.78205 -5.25044,-5.36805 -2.59101,-0.90957 -3.24742,-3.57614 -1.3479,-5.47565 1.36123,-1.36123 2.0006,-1.43578 3.62318,-0.42246 1.08364,0.67675 3.32106,1.23045 4.97204,1.23045 2.51687,0 2.9633,-0.36347 2.76357,-2.25 -0.41113,-3.88334 2.61066,-2.54971 5.01179,2.21189 2.45188,4.86223 2.9489,10.93921 1.05,12.83811 -1.46345,1.46345 -5.44747,1.57943 -6.31008,0.18369 -1.47217,-2.38202 -2.36544,0.35635 -0.98625,3.0234 2.19835,4.25115 1.88564,7.69172 -0.86277,9.49254 -1.2975,0.85016 -3.04009,1.28442 -3.87242,0.96502 -1.17165,-0.4496 -1.40372,-0.007 -1.02786,1.95884 1.22835,6.42566 -2.83362,11.05604 -7.19306,8.19963 -2.86408,-1.87662 -3.70989,-1.18028 -2.48372,2.0448 2.14714,5.6474 -0.60293,11.20888 -4.97702,10.06504 -1.66992,-0.4367 -2.02639,0.0512 -2.28288,3.12477 -0.27546,3.30096 -0.58133,3.64227 -3.26411,3.64227 -2.21882,0 -3.50426,-0.80739 -5.13275,-3.2239 l -2.17258,-3.2239 0.50471,6.28771 c 0.37665,4.69225 0.0809,7.10717 -1.16535,9.51725 -2.14717,4.15219 -5.82072,5.96281 -8.29425,4.08809 -1.51803,-1.15054 -1.59588,-1.14276 -0.52961,0.053 2.01054,2.25466 1.45401,4.00177 -1.27475,4.00177 -1.77294,0 -2.80779,0.74445 -3.47525,2.5 -0.52277,1.375 -1.68437,2.5 -2.58133,2.5 -0.89696,0 -2.53513,1.14963 -3.64038,2.55473 -1.53024,1.94539 -2.75716,2.48205 -5.14392,2.25 -2.67254,-0.25983 -3.43276,0.21098 -5.15946,3.19527 -2.18342,3.77363 -6.99854,5.35798 -8.60109,2.83008 -1.57083,-2.47788 -0.95404,-5.86485 1.21409,-6.6669 1.87755,-0.69455 1.92793,-0.90515 0.5,-2.09022 -1.05806,-0.87811 -1.58794,-0.94331 -1.58794,-0.19542 0,0.61734 -0.675,1.12244 -1.5,1.12244 -0.825,0 -1.5,-0.63853 -1.5,-1.41896 0,-0.78043 -0.7689,-2.75868 -1.70866,-4.39612 -1.43559,-2.50138 -1.49593,-3.23348 -0.37755,-4.58104 1.75558,-2.11534 4.15094,-2.04186 4.76296,0.14612 0.26924,0.9625 2.02711,2.74178 3.90639,3.95396 l 3.41686,2.20396 v -4.73145 c 0,-4.93334 2.08401,-9.17647 4.50701,-9.17647 0.76649,0 1.79414,-0.71571 2.28368,-1.59047 1.58385,-2.83017 5.56365,-1.33665 6.90287,2.59047 0.65645,1.925 1.21895,2.79132 1.25,1.92515 0.0735,-2.0502 -4.70038,-16.08197 -5.86893,-17.25052 -0.53302,-0.53302 -2.78375,0.53877 -5.52185,2.62946 -10.48465,8.00563 -28.92662,15.85483 -50.97374,21.69526 -33.64591,8.91302 -53.78914,11.34838 -75.07904,9.07722 -12.10554,-1.29139 -31.43116,-5.30821 -38.58066,-8.01896 l -4.58066,-1.73678 0.47969,2.58959 c 0.58023,3.13234 1.80908,4.0541 5.43163,4.07427 1.79616,0.01 2.75,0.54647 2.75,1.54669 0,2.26902 -2.51957,2.83384 -7.26646,1.62895 -4.62273,-1.17337 -5.16431,-0.95005 -11.73354,4.83838 l -3.5,3.084 4.94578,-3.04135 c 8.11025,-4.98732 15.42833,-3.45001 12.646,2.65654 -1.0688,2.34576 -1.02961,2.4954 0.35298,1.34794 0.85538,-0.7099 1.55524,-2.08053 1.55524,-3.04584 0,-2.48145 2.53638,-4.28192 4.95201,-3.51523 1.99152,0.63208 2.84,3.90771 1.26444,4.88146 -0.43096,0.26634 -0.60352,2.37212 -0.38348,4.67949 0.22004,2.30738 0.68514,3.79628 1.03355,3.30867 3.40175,-4.76084 11.17892,-7.8522 13.68348,-5.43907 0.5225,0.50343 2.075,1.06593 3.45,1.25 4.14959,0.55551 3.727,4.06829 -1.14744,9.53818 l -4.27436,4.7965 4.14834,-3.89186 c 2.28159,-2.14052 4.68109,-5.17802 5.33222,-6.75 1.27125,-3.06908 4.60029,-3.91021 5.56155,-1.4052 0.43263,1.12741 0.95603,1.20408 2.33615,0.34218 3.99282,-2.49356 7.13481,1.47543 5.20835,6.5792 -1.06581,2.82366 -0.7941,2.67831 3.27171,-1.7502 l 4.43405,-4.8296 5.31472,0.71707 c 6.48727,0.87528 6.80399,1.05067 6.85698,3.79743 0.0437,2.26367 4.00016,-6.35582 5.30579,-11.55902 0.52372,-2.08716 1.2956,-2.75 3.20238,-2.75 4.06335,0 4.22791,2.56504 0.76983,12 -0.30963,0.8448 0.0924,0.66463 0.92037,-0.41248 0.9367,-1.21853 2.09318,-1.6734 3.18719,-1.25359 0.94438,0.3624 2.62189,0.17464 3.7278,-0.41722 1.5579,-0.83376 2.41461,-0.71062 3.804,0.54676 1.60056,1.44848 1.85689,1.45704 2.38543,0.0797 0.79351,-2.06786 6.2511,-2.03795 7.04795,0.0386 0.33385,0.86998 0.6437,2.78248 0.68856,4.25 0.0782,2.55775 0.14394,2.52331 1.58792,-0.83179 3.20756,-7.45277 9.41271,-10.65526 11.21349,-5.7873 1.09701,2.96551 0.36074,5.34986 -2.48488,8.04705 -2.46516,2.33656 -3.15078,4.74025 -1.3521,4.74025 1.57156,0 5.93306,-10.0424 5.94423,-13.68664 0.009,-2.86183 0.34104,-3.21858 3.25977,-3.5 2.92591,-0.28211 3.25,-0.63316 3.25,-3.52031 0,-3.52774 2.23737,-5.7966 6.7251,-6.81974 1.98559,-0.45268 2.66402,-1.17339 2.5,-2.6558 -0.35847,-3.23993 2.72506,-4.62508 5.23648,-2.35228 2.03966,1.84587 2.13493,1.83953 5.07996,-0.33782 1.65072,-1.22043 3.44167,-1.94681 3.97988,-1.61417 2.10567,1.30137 0.78077,3.68375 -3.48981,6.27524 -4.44337,2.69634 -4.46796,2.74232 -4.39044,8.21152 l 0.078,5.5 0.86558,-4.5 c 0.54535,-2.83519 1.8203,-5.3324 3.4462,-6.75 3.21918,-2.80675 3.96478,-2.8081 5.92418,-0.0107 0.86267,1.23164 2.35069,2.24414 3.3067,2.25 3.50418,0.0215 2.19671,10.03133 -1.88212,14.40945 -1.77444,1.90463 -2.81617,2.20707 -5.90229,1.71358 -3.17629,-0.50791 -3.82681,-0.29616 -4.26752,1.38914 -0.67068,2.56465 -3.4775,3.6247 -5.78384,2.18436 -1.48233,-0.92573 -1.91915,-0.78287 -2.41869,0.79103 -0.86539,2.72661 -4.36118,3.59829 -6.36884,1.58809 -1.1311,-1.13254 -1.608,-3.25463 -1.54003,-6.85278 l 0.0985,-5.21221 -1.27161,4 c -0.69938,2.2 -1.30619,5.70162 -1.34846,7.78138 -0.0839,4.12812 -2.0969,5.77679 -4.55874,3.73365 -1.16676,-0.96833 -1.98658,-0.7917 -4.12212,0.88813 -3.12199,2.45575 -6.64184,2.71046 -8.38759,0.60696 -1.07199,-1.29166 -1.49705,-1.15862 -3.19502,1 -4.17992,5.3139 -9.23039,1.01356 -7.07139,-6.02109 0.58943,-1.92055 0.71908,-3.27399 0.2881,-3.00763 -0.43097,0.26636 -1.62655,3.18816 -2.65684,6.49289 -1.28022,4.10641 -2.3885,6.01132 -3.50081,6.01716 -2.63071,0.0138 -4.17411,-2.68812 -3.56666,-6.24393 l 0.55479,-3.24752 -1.38518,3 c -0.76185,1.65 -1.40548,4.0125 -1.43029,5.25 -0.0576,2.87328 -3.99482,3.15827 -4.73117,0.34245 -0.49078,-1.87672 -0.52966,-1.87672 -2.40638,0 -2.28917,2.28917 -4.22954,2.42943 -5.8923,0.42593 -1.08623,-1.30883 -1.47633,-1.30883 -3.34495,0 -2.36757,1.65831 -3.02937,1.78922 -4.02283,0.79575 z m 5.48009,-4.06413 c 1.24387,-1.58606 1.2085,-1.62143 -0.37756,-0.37756 -1.66575,1.30637 -2.19548,2.12756 -1.37244,2.12756 0.20765,0 0.99515,-0.7875 1.75,-1.75 z m 23.11286,-9.67001 c -0.78647,-1.27254 -4.0983,8.51576 -3.46285,10.23464 0.2673,0.72304 1.29142,-1.06451 2.27582,-3.97234 0.9844,-2.90784 1.51856,-5.72587 1.18703,-6.2623 z m -33.58198,0.65341 1.68281,-2.7334 -3.07377,3 c -2.62406,2.56108 -2.98883,3.51207 -2.4932,6.5 l 0.58057,3.5 0.8104,-3.7666 c 0.44571,-2.07162 1.56765,-4.99662 2.49319,-6.5 z m 3.94836,3.56007 c 2.02669,-3.91918 0.61422,-5.79104 -1.62622,-2.15514 -0.96985,1.57392 -2.10215,3.98314 -2.51622,5.35383 -0.68473,2.26667 -0.59812,2.36374 0.95733,1.07283 0.9406,-0.78063 2.3739,-2.70281 3.18511,-4.27152 z m 4.61369,0.0141 c 3.5463,-6.92319 2.37468,-8.40825 -1.27956,-1.62189 -3.03921,5.64418 -3.4102,6.81429 -2.16054,6.81429 0.42921,0 1.97726,-2.33658 3.4401,-5.1924 z m 13.70604,-15.80757 c -3.4e-4,-1.44054 -1.48357,1.28922 -3.49997,6.44141 -1.92466,4.91777 -3.97173,9.51056 -4.54906,10.20619 -0.57732,0.69564 -0.72552,1.78929 -0.32933,2.43034 0.89595,1.44967 8.37918,-15.59002 8.37836,-19.07794 z m -30.79897,17.25 c 1.24387,-1.58606 1.2085,-1.62143 -0.37756,-0.37756 -1.66575,1.30637 -2.19548,2.12756 -1.37244,2.12756 0.20765,0 0.99515,-0.7875 1.75,-1.75 z m 28.92188,-2.34691 c 1.14954,-2.25329 1.91856,-4.26842 1.70893,-4.47806 -0.20964,-0.20963 -1.36018,1.63398 -2.55677,4.09691 -2.72529,5.60948 -1.98845,5.94073 0.84784,0.38115 z m 5.1267,0.33041 c 2.07689,-5.28723 1.01238,-7.48751 -1.31127,-2.71034 -1.02568,2.10868 -1.86487,4.42861 -1.86487,5.1554 0,2.58657 1.71968,1.26272 3.17614,-2.44506 z m 24.32386,-1.80806 v -5.56865 l -1.32735,3.25414 c -0.97582,2.39233 -1.04771,3.86788 -0.27144,5.5716 0.58075,1.27461 1.17806,2.31614 1.32735,2.31451 0.14929,-0.002 0.27144,-2.50884 0.27144,-5.5716 z m -68.30041,0.24015 c 2.18024,-2.60826 3.32335,-4.81945 2.87039,-5.55236 -0.51659,-0.83587 -1.60547,-0.0999 -3.47098,2.34586 -2.21984,2.91036 -4.21758,7.54091 -3.25334,7.54091 0.12695,0 1.86122,-1.95049 3.85393,-4.33441 z m 58.48352,2.14691 c -0.31922,-0.79773 -0.55618,-0.56078 -0.60416,0.60417 -0.0434,1.05416 0.19293,1.64479 0.52522,1.3125 0.33229,-0.33229 0.36781,-1.1948 0.0789,-1.91667 z m -50.1486,-2.0625 1.58588,-3.25 -2.03796,2.5 c -1.96216,2.40702 -2.60258,4 -1.60811,4 0.26088,0 1.18796,-1.4625 2.06019,-3.25 z m -24.92217,-6.48617 c 2.78906,-3.65665 1.73599,-3.63024 -2.36234,0.0593 -1.58287,1.42497 -2.22451,3.08574 -2.16405,5.60123 0.0849,3.5319 0.0963,3.54122 0.93091,0.76067 0.46472,-1.54827 2.08269,-4.43778 3.59548,-6.42115 z m 8.17366,4.55439 c 1.7677,-2.29999 3.214,-4.83377 3.214,-5.63063 0,-0.79687 -1.8,0.81186 -4,3.57494 -2.2,2.76309 -4,5.29687 -4,5.63063 0,1.61339 1.87458,0.21315 4.786,-3.57494 z m -4.33444,-1.3436 c 1.40604,-1.84341 2.17349,-3.58832 1.70546,-3.87758 -0.98324,-0.60767 -5.57845,4.08894 -6.4595,6.60203 -0.94504,2.69563 1.83523,1.10231 4.75404,-2.72445 z m 94.95976,-5.21927 c 0.25765,-0.25765 -0.067,-1.04408 -0.72143,-1.74762 -0.93754,-1.00787 -1.40416,-0.18998 -2.20022,3.85656 -0.68044,3.45881 -0.68044,5.37022 0,5.85392 0.60817,0.43233 1.29749,-0.91629 1.73176,-3.3881 0.39678,-2.25846 0.93223,-4.31711 1.18989,-4.57476 z m -107.67462,1.4499 c 0.056,-3.85803 -0.003,-3.95754 -0.71411,-1.20525 -0.42635,1.65 -1.10595,3.7926 -1.51022,4.76134 -0.54132,1.29712 -0.35311,1.61478 0.71411,1.20525 0.9324,-0.3578 1.47093,-2.05566 1.51022,-4.76134 z m 113.95263,-0.45525 c -0.25153,-0.9625 -0.45733,-0.175 -0.45733,1.75 0,1.925 0.2058,2.7125 0.45733,1.75 0.25152,-0.9625 0.25152,-2.5375 0,-3.5 z m 9.71978,-15.87374 c 0.24944,-0.65003 -0.17626,-2.0131 -0.94599,-3.02906 -1.34924,-1.78084 -1.40258,-1.77535 -1.48479,0.1528 -0.85824,20.12736 7.8e-4,29.49043 1.24122,13.52906 0.40482,-5.20902 0.94013,-10.00278 1.18956,-10.6528 z m 8.16232,16.05231 c -0.98272,-0.98271 -1.61642,-3.51151 -1.69152,-6.75 l -0.12009,-5.17857 -0.993,4.11258 c -0.81453,3.37341 -0.6824,4.58662 0.7351,6.75 0.95045,1.45058 2.15849,2.63742 2.68452,2.63742 0.52603,0 0.24927,-0.70714 -0.61501,-1.57143 z m -142.82143,-1.41761 c 1.7875,-1.08986 3.25,-2.17409 3.25,-2.4094 0,-0.23531 -1.4625,0.0513 -3.25,0.63692 -1.7875,0.58561 -3.8125,1.2074 -4.5,1.38175 -0.6875,0.17435 -1.25,0.78112 -1.25,1.34839 0,1.58651 2.17003,1.22509 5.75,-0.95766 z m 7.63156,0.4371 c 0.34149,-0.88992 0.17385,-1.29132 -0.39301,-0.94098 -0.5437,0.33602 -0.98855,1.0344 -0.98855,1.55194 0,1.43843 0.71677,1.12146 1.38156,-0.61096 z m 122.11147,-11.28836 c -0.23684,-0.23684 -1.56339,0.31161 -2.94789,1.21877 -2.5114,1.64553 -2.51264,1.65403 -0.53121,3.63546 1.09234,1.09234 2.04313,3.44857 2.11287,5.23607 0.0697,1.7875 0.50257,0.34532 0.96183,-3.20484 0.45926,-3.55017 0.64124,-6.64862 0.4044,-6.88546 z m 6.16925,9.5903 c -0.27741,-0.6875 -0.50439,-0.125 -0.50439,1.25 0,1.375 0.22698,1.9375 0.50439,1.25 0.27741,-0.6875 0.27741,-1.8125 0,-2.5 z m -138.22557,-6.64662 c -0.97797,-0.97797 -5.95152,3.69771 -6.27638,5.90048 -0.29522,2.00178 0.12397,1.79711 3.20308,-1.56392 1.94851,-2.12691 3.3315,-4.07837 3.0733,-4.33656 z m 149.58804,5.33152 c 0.53639,-1.4108 0.97525,-3.53095 0.97525,-4.71144 0,-1.60294 -0.50635,-1.15317 -2,1.77654 -2.25801,4.42896 -2.44793,5.5 -0.97525,5.5 0.56361,0 1.46361,-1.15429 2,-2.5651 z m -136.73464,-3.43628 c 0.28785,-1.10076 0.11534,-1.7492 -0.38337,-1.44098 -0.49871,0.30822 -0.90674,1.20884 -0.90674,2.00138 0,2.06975 0.6795,1.77459 1.29011,-0.5604 z m -13.54011,-10.10459 c 3.74877,-3.39412 4.36191,-5.66869 0.92017,-3.41358 -1.2814,0.83961 -2.70355,1.18749 -3.16032,0.77306 -0.45678,-0.41443 -0.53129,-0.23064 -0.16558,0.40843 0.38696,0.67621 -1.84519,3.43345 -5.33968,6.59579 -3.30252,2.98861 -6.00459,5.76652 -6.00459,6.17312 0,0.77445 8.18162,-5.49525 13.75,-10.53682 z m -14.98127,3.39326 c 1.79781,-1.32971 3.00748,-2.84037 2.68817,-3.35702 -0.59833,-0.96813 -8.40668,4.93402 -8.43887,6.37875 -0.0214,0.95845 1.328,0.24943 5.7507,-3.02173 z m 9.23127,-4.26433 c 0,-0.80273 -2.40563,-2.02296 -3.98817,-2.02296 -0.45352,0 -0.58358,0.92161 -0.28902,2.04803 0.34296,1.31147 -0.32009,2.99994 -1.84362,4.69485 -2.02086,2.24818 -1.73911,2.15299 1.87081,-0.63206 2.3375,-1.80338 4.25,-3.64292 4.25,-4.08786 z m 174.90901,1.3674 c -0.68449,-0.82475 -2.16604,-1.99274 -3.29235,-2.59552 -1.67851,-0.89831 -1.55809,-0.51394 0.66776,2.13133 1.49357,1.775 2.77686,3.98025 2.85176,4.90056 0.0772,0.94846 0.32703,0.67479 0.57677,-0.63177 0.24232,-1.26778 -0.11946,-2.97984 -0.80394,-3.8046 z m -20.40901,2.60964 c -0.33992,-0.55 -1.15398,-0.99311 -1.80902,-0.98469 -0.71561,0.009 -0.59227,0.40223 0.30902,0.98469 1.92112,1.24153 2.2673,1.24153 1.5,0 z m -70.47377,-2.05204 c 12.44793,-1.54545 45.13863,-9.24235 59.22296,-13.94383 23.50404,-7.84586 39.26055,-17.53023 49.99418,-30.72775 3.0312,-3.72701 8.67812,-10.23063 12.54871,-14.4525 6.82877,-7.44851 7.02329,-7.80431 6.56062,-12 -0.90987,-8.25116 -1.04875,-8.5221 -4.13603,-8.06899 -4.8702,0.71479 -7.06499,-4.56167 -2.97013,-7.14041 1.27747,-0.80449 2.2381,-0.79291 3.5768,0.0431 1.77354,1.10759 1.77365,0.87499 0.004,-7.5073 -5.63613,-26.69118 -20.6711,-60.04112 -36.58481,-81.15028 -12.75592,-16.92041 -32.56833,-35.8717 -47.92203,-45.83915 -3.94872,-2.56347 -7.06354,-5.11085 -6.92183,-5.66085 0.14172,-0.55 2.24749,-1.03676 4.6795,-1.08168 l 4.42183,-0.0817 -4.35885,0.39091 -4.35885,0.39092 8.1357,5.56602 c 8.53364,5.83828 25.20658,19.92658 30.95706,26.15811 4.24296,4.59789 16.95978,19.88486 19.64392,23.61407 l 2.01898,2.80507 4.63214,-12.88087 c 6.03797,-16.79015 8.78986,-29.1657 6.76646,-30.42951 -2.90233,-1.81279 -25.69459,-8.80399 -34.21144,-10.49386 -4.82618,-0.95759 -8.56532,-1.95064 -8.30919,-2.20677 0.92284,-0.92283 20.94963,3.95198 32.26581,7.85396 6.35834,2.19245 11.67354,3.85331 11.81154,3.69079 1.10168,-1.29739 2.73108,-16.01376 3.18825,-28.79548 0.45802,-12.80566 0.32529,-15.282719 -0.76357,-14.250005 -3.18198,3.017898 -7.60843,0.137206 -6.51058,-4.237014 0.49211,-1.960676 1.26755,-2.512966 3.52834,-2.512966 1.59369,0 3.12459,0.5625 3.402,1.25 0.27741,0.6875 0.53991,-0.421842 0.58333,-2.465204 0.0856,-4.027997 -0.052,-4.222827 -13.9005,-19.67776 -4.1363,-4.61613 -9.43465,-9.855438 -11.7741,-11.642906 -3.92562,-2.999392 -4.57246,-3.178286 -8.39031,-2.320473 -2.27522,0.511208 -4.63612,0.754479 -5.24645,0.540602 -0.61033,-0.213877 0.80045,-0.719486 3.13507,-1.123575 2.33462,-0.40409 4.44459,-1.058043 4.68883,-1.45323 0.60014,-0.971054 -11.57883,-8.839498 -18.24543,-11.787784 -9.45679,-4.182239 -19.21261,-6.235187 -39.18816,-8.246481 -28.19196,-2.838588 -49.06134,-3.621073 -51.14168,-1.917528 -3.23988,2.653074 -14.8311,17.89618 -15.28236,20.09716 -0.2534,1.235949 -0.72134,4.047179 -1.03986,6.247179 -0.50948,3.51886 -0.2173,3.158005 2.42908,-3 3.68886,-8.583838 7.86789,-12.743455 12.36483,-12.307391 2.45554,0.238111 3.24501,0.837419 3.50287,2.659104 0.5744,4.058003 -0.75108,7.071123 -4.86829,11.066739 -2.64052,2.562544 -3.77625,4.40877 -3.36745,5.474088 0.33926,0.884103 0.97869,1.60746 1.42096,1.60746 2.25331,0 10.17733,-12.952099 12.38883,-20.25 0.59029,-1.947968 5.05512,-2.429442 6.14692,-0.662868 0.48382,0.782843 0.97617,0.782843 1.75902,0 2.11038,-2.110386 7.40787,-1.25761 9.61455,1.547727 2.44967,3.114248 2.58176,5.210731 0.62361,9.89726 -0.79694,1.907334 -1.2768,3.467881 -1.06635,3.467881 0.21044,0 2.4723,-2.65983 5.02635,-5.910733 5.06454,-6.446343 8.43996,-8.406974 13.62039,-7.91147 2.81538,0.26929 3.41963,0.764342 3.67944,3.01451 0.43747,3.788954 -2.23741,7.351679 -7.39369,9.847792 -2.42945,1.176073 -4.41717,2.286366 -4.41717,2.46732 0,0.180953 -0.27314,1.04081 -0.60699,1.910794 -0.43981,1.14612 -0.003,1.581787 1.58656,1.581787 1.32887,0 4.74889,-2.45378 8.67609,-6.224866 5.8745,-5.640981 6.42787,-6.516354 5.89957,-9.332451 -0.4434,-2.363517 -0.0868,-3.556649 1.48943,-4.983095 2.59729,-2.35052 5.30785,-0.992711 5.77176,2.891274 0.23654,1.980372 0.88028,2.649138 2.55,2.649138 5.41183,0 6.10644,5.187763 1.43472,10.715204 -1.75938,2.081638 -3.89688,4.669855 -4.75,5.751594 -2.3273,2.950952 8.49043,-6.133275 11.34863,-9.530054 1.35911,-1.615209 2.83766,-2.953175 3.28567,-2.973256 0.44801,-0.02008 2.10249,-2.068366 3.67663,-4.551741 2.96774,-4.681927 5.03748,-5.318775 7.02563,-2.161747 1.42476,2.2624 -0.024,4.730302 -3.96259,6.75 -2.27693,1.167615 -2.858,2.078231 -2.62225,4.109459 0.22205,1.913183 -0.77855,3.769172 -3.75,6.955759 -4.56647,4.897102 -5.10451,5.950098 -1.80286,3.528384 8.56527,-6.282503 11.28033,-7.593602 15.72502,-7.593602 3.43629,0 4.94425,0.500571 6.02498,2 0.79284,1.1 2.15218,2 3.02076,2 0.86858,0 2.11924,0.54 2.77924,1.2 2.39912,2.399116 1.25923,5.576829 -3.55,9.896476 -4.70301,4.224242 -4.71234,4.244868 -0.94284,2.084987 4.44425,-2.546506 6.69284,-2.779672 6.69284,-0.694008 0,1.561333 -5.30879,5.253042 -10.64251,7.400752 -4.20531,1.693341 -8.57328,1.076762 -9.83432,-1.388207 -0.62518,-1.222044 -1.82392,-1.885458 -3.08178,-1.70553 -2.68356,0.383866 -7.44139,-3.389868 -7.44139,-5.902234 0,-1.696709 -0.29049,-1.807137 -2.14416,-0.815086 -1.17928,0.631135 -3.92655,0.908448 -6.10503,0.616252 -3.46456,-0.464695 -5.16945,0.162446 -13.60585,5.004913 -15.09284,8.663247 -35.91407,24.199239 -34.42598,25.687332 0.33789,0.337894 0.0893,0.614353 -0.55231,0.614353 -2.95719,0 -0.38767,-3.079435 8.21276,-9.842593 9.07617,-7.137258 28.77791,-19.737299 34.69242,-22.187169 4.09689,-1.696986 3.64854,-2.87655 -0.86334,-2.271379 -7.54133,1.011504 -8.02147,-4.960603 -1.10254,-13.713705 5.45191,-6.897188 2.97109,-6.262508 -3.70427,0.94768 -9.02566,9.748793 -16.8976,12.263143 -21.07107,6.730245 l -1.7491,-2.318826 -3.43031,2.327873 c -4.05481,2.751667 -11.55015,3.181806 -14.16761,0.813045 -1.5338,-1.388075 -1.92763,-0.94878 -4.7066,5.25 -1.668,3.720656 -3.29857,7.552329 -3.62349,8.514829 -0.32491,0.9625 -1.18987,1.75 -1.92214,1.75 -3.8069,0 -4.89294,-5.796455 -2.11713,-11.29966 1.04561,-2.073 1.15129,-2.760019 0.3,-1.95034 -1.74904,1.663538 -6.07079,1.587239 -8.44537,-0.1491 -1.72723,-1.262975 -2.08492,-1.117033 -3.67644,1.5 -2.13209,3.505954 -5.99188,3.880152 -8.15582,0.790691 -0.81223,-1.159624 -1.96275,-1.808067 -2.5567,-1.440983 -1.51067,0.933644 -1.2838,-1.469987 0.42008,-4.450608 1.56607,-2.739547 2.05329,-11.459988 0.58975,-10.555471 -1.06959,0.661043 -3.49022,14.098485 -2.75423,15.289337 0.75735,1.225419 -4.774,16.66881 -7.18097,20.049089 -1.15761,1.625708 -2.55481,4.139606 -3.10489,5.586439 -0.9969,2.622038 -1.03619,2.630606 -12.06432,2.630606 -18.949,0 -42.56509,3.404717 -46.15578,6.654248 -1.07599,0.973756 -2.64098,1.366824 -4.01323,1.007973 -2.61204,-0.683064 -15.81633,3.068924 -15.81633,4.494199 0,0.52889 -0.41843,0.70301 -0.92984,0.38694 -0.51142,-0.31607 -4.49189,6.547465 -8.8455,15.252295 -8.65867,17.31261 -15.30647,36.28636 -17.72347,50.58534 -1.94357,11.49811 -1.91553,29.21386 0.0627,39.64249 1.47499,7.77551 8.61079,29.55125 10.20681,31.14727 0.40438,0.40438 2.53389,-2.74336 4.73225,-6.99498 3.96659,-7.67141 3.97895,-7.73 1.62371,-7.70299 -3.0969,0.0355 -5.0235,-2.82349 -3.51947,-5.22278 1.58504,-2.52852 5.06503,-2.74763 6.52441,-0.4108 1.12404,1.79987 1.81238,1.10917 8.15876,-8.18674 3.81214,-5.58385 7.95202,-11.27746 9.19974,-12.65246 1.24773,-1.375 3.38614,-4.3 4.75203,-6.5 1.36589,-2.2 7.67142,-8.6887 14.01229,-14.41933 l 11.52885,-10.41933 -3.53154,-3.33067 c -1.9423,-1.83187 -3.63895,-3.33067 -3.77029,-3.33067 -0.3967,0 -2.27873,5.31595 -2.91539,8.23477 -0.90942,4.16933 -5.2105,4.8799 -8.23743,1.36089 -1.28074,-1.48895 -2.32862,-3.79682 -2.32862,-5.12859 0,-3.02872 3.44484,-12.07624 9.40479,-24.70073 2.52737,-5.35352 4.59521,-10.62518 4.59521,-11.71482 0,-4.09357 6.68221,-5.36931 10.11954,-1.93198 2.96236,2.96236 2.01658,8.66522 -3.13689,18.91498 -3.45857,6.87874 -3.75096,7.91185 -1.96939,6.95838 1.94715,-1.04208 5.19801,-1.22652 12.42589,-0.70498 2.52105,0.18191 3.36337,-0.46993 5.92141,-4.58239 10.82224,-17.39847 -5.23197,-35.11293 -23.86056,-26.32811 -2.75,1.29684 -5.97083,3.42995 -7.1574,4.74023 -5.8607,6.47179 -9.73334,19.55552 -7.44535,25.15415 2.12116,5.19044 1.89079,7.03901 -1.00682,8.07895 -4.47497,1.60604 -7.48815,0.1117 -9.925,-4.92216 -2.81796,-5.82112 -2.20951,-11.31449 2.16151,-19.51538 4.04592,-7.59092 11.1955,-14.22329 19.64973,-18.22823 6.23739,-2.95478 7.48698,-3.18498 17.2889,-3.18498 9.77626,0 11.0057,0.22489 16.45705,3.01039 10.31072,5.2685 15.19364,14.6865 12.70262,24.50036 l -1.00786,3.97065 2.71087,-1.93031 c 1.98789,-1.4155 4.22582,-5.66998 8.39131,-15.95252 3.12424,-7.71222 5.68044,-14.93082 5.68044,-16.04134 0,-2.74237 4.51059,-3.83994 7.93071,-1.9298 3.2272,1.80241 3.80264,6.23202 1.64934,12.69635 l -1.55766,4.67622 4.70904,-5.5 c 7.35215,-8.58707 20.51938,-22.000005 21.597,-22.000005 0.53551,0 -3.27624,4.3875 -8.47055,9.750005 -5.19432,5.3625 -11.40203,12.225 -13.79492,15.25 -2.39289,3.025 -4.71977,5.3929 -5.17085,5.262 -0.45107,-0.13091 -0.53486,0.50541 -0.18618,1.41404 0.39392,1.02656 0.23403,1.40489 -0.4223,0.99925 -0.58094,-0.35904 -1.29028,0.24214 -1.57632,1.33596 -0.63327,2.42162 -0.87838,2.42103 4.43349,0.0107 5.69992,-2.5864 6.12155,-2.54072 8.14359,0.88233 2.77666,4.70051 2.12578,8.92352 -2.87581,18.6588 -6.78907,13.2145 -7.20864,14.81605 -2.54482,9.71381 4.53244,-4.95849 10.8002,-16.48302 13.20247,-24.27537 1.6007,-5.19224 1.89415,-5.51866 5.21989,-5.80623 2.74097,-0.23701 3.8782,0.20121 5.11886,1.97251 2.68455,3.83273 1.86171,7.99287 -3.90498,19.74285 -3.025,6.16362 -5.5,11.46031 -5.5,11.77041 0,2.76737 10.00936,-11.20419 12.96262,-18.09386 2.37118,-5.53175 8.02911,-11.88087 12.46201,-13.98442 1.85769,-0.88153 5.21175,-1.60279 7.45345,-1.60279 3.26341,0 4.40824,0.50734 5.74357,2.54532 1.42344,2.17244 1.49146,3.13379 0.46429,6.56217 -1.53048,5.1083 -6.76283,10.9176 -12.60435,13.9942 -4.49443,2.36711 -6.02115,4.83018 -5.3116,8.56922 0.21582,1.13724 1.38365,1.94874 3.08746,2.14541 4.03086,0.46527 12.17644,-8.15307 17.48546,-18.5003 3.64389,-7.10192 4.06552,-8.56712 3.18889,-11.08181 -2.70102,-7.74815 7.41008,-15.06947 11.153,-8.07576 0.79119,1.47835 0.75676,2.80985 -0.12787,4.94554 -1.08509,2.61962 -0.92326,3.3371 1.56133,6.92237 1.52454,2.19991 3.5359,6.34344 4.46969,9.20786 l 1.69781,5.20803 2.40712,-4.21343 c 2.4423,-4.275 5.4636,-5.54819 6.53575,-2.7542 0.68811,1.79319 -2.41919,6.96825 -8.75597,14.58267 -5.08102,6.10548 -13.08855,10.94272 -18.11446,10.94272 -3.63186,0 -7.7582,-4.02673 -7.7582,-7.57091 v -2.66181 l -4.11044,3.71353 c -4.44746,4.01801 -9.48361,6.52139 -13.10744,6.51545 -3.20719,-0.005 -8.60928,-3.52281 -9.95878,-6.48464 l -1.13587,-2.49297 -4.80089,4.49068 c -2.71669,2.54114 -5.76831,4.49067 -7.02929,4.49067 -2.80609,0 -6.85729,-3.72294 -6.85729,-6.30167 0,-1.61367 -0.77808,-1.23584 -4.47766,2.17431 -2.46271,2.27005 -5.40816,4.12736 -6.54545,4.12736 -2.52948,0 -6.97689,-4.25628 -6.97689,-6.67705 0,-1.52497 -0.20606,-1.47377 -1.49925,0.37252 -2.26475,3.23339 -8.05568,6.43515 -11.03506,6.10122 -2.43598,-0.27302 -2.88678,0.30158 -5.65133,7.20331 -5.18744,12.95053 -11.81436,42.3105 -11.81436,52.3425 v 3.99008 l 7.50685,-8.0804 c 8.69106,-9.35509 13.75226,-12.25218 21.4045,-12.25218 8.52138,0 13.16377,4.47283 14.54438,14.01317 1.2354,8.53695 -4.49787,19.98683 -10.00796,19.98683 -2.18888,0 -7.44777,-3.47372 -7.44777,-4.91957 0,-0.42593 0.95834,-1.85576 2.12964,-3.17742 4.44098,-5.01106 7.55766,-15.88237 5.2227,-18.21734 -1.24021,-1.2402 -8.51993,3.79487 -12.90121,8.92321 -13.05721,15.28363 -20.80925,40.16489 -15.69958,50.38997 4.97634,9.95826 16.49825,6.35962 28.93588,-9.03755 6.42485,-7.95365 13.54783,-19.78494 16.40245,-27.24453 l 2.14435,-5.60353 -2.11711,-2.69148 c -2.65901,-3.38038 -2.6695,-5.4498 -0.0445,-8.7869 3.89229,-4.94824 9.92742,-2.08843 9.92742,4.70422 0,2.50312 0.30394,2.81724 2.25,2.32529 7.62761,-1.92822 7.57279,-1.93249 10.30921,0.80393 3.60765,3.60765 2.97571,7.19828 -3.52549,20.0317 -2.78621,5.5 -5.05861,10.3926 -5.04978,10.87244 0.0546,2.96694 9.36136,-9.77547 12.72553,-17.42325 3.96877,-9.02232 12.40389,-15.94919 19.42191,-15.94919 12.04522,0 7.59065,16.48111 -6.38142,23.61009 -4.4754,2.28349 -4.75,2.65569 -4.75,6.43814 0,4.76139 1.57611,5.73945 5.7613,3.57521 7.06274,-3.65229 18.2387,-21.45715 18.2387,-29.05679 0,-4.74349 5.86036,-6.20869 9.87462,-2.46884 2.0669,1.92562 2.39558,1.96764 4.00417,0.51188 4.85665,-4.3952 13.65556,-2.21809 16.66478,4.12337 2.71628,5.72414 0.0193,18.21887 -5.36092,24.83661 -0.92546,1.13832 0.68884,-0.35481 3.58732,-3.31808 2.89849,-2.96327 6.60763,-8.03764 8.24255,-11.27638 3.86599,-7.65849 8.49252,-12.84497 13.4789,-15.11023 7.96908,-3.62027 13.50858,-1.52317 13.50858,5.11398 0,5.21396 -4.85946,11.50877 -12.28319,15.91132 -5.39542,3.19968 -5.71681,3.60903 -5.71681,7.28138 0,4.6425 1.61173,5.5976 5.79524,3.43423 4.52055,-2.33767 10.5636,-9.79056 14.65891,-18.07883 3.15011,-6.37532 3.58723,-8.0683 3.03466,-11.75313 -0.81413,-5.42899 2.05821,-9.77393 6.46133,-9.77393 3.96023,0 5.43397,2.19645 4.6718,6.9628 -0.52876,3.3067 -0.14329,4.7225 2.36087,8.67114 1.64604,2.59555 3.27431,6.2197 3.61836,8.05366 0.90441,4.82093 2.00481,4.89989 4.60175,0.33024 2.41946,-4.25736 5.08536,-4.96765 5.58639,-1.48841 0.35304,2.45157 -4.49881,9.95919 -10.28116,15.9088 -5.07246,5.21916 -11.18388,8.56177 -15.65386,8.56177 -3.54656,0 -7.85429,-3.29493 -7.85429,-6.00765 0,-3.02178 -1.24831,-2.98152 -4.82118,0.15551 -8.60762,7.55759 -18.4181,7.6405 -22.18106,0.18745 -0.78733,-1.55942 -1.53426,-2.99815 -1.65983,-3.19717 -0.12557,-0.19902 -2.17992,1.23733 -4.56521,3.1919 -5.79919,4.752 -8.95905,5.81138 -17.26934,5.78977 -6.2536,-0.0163 -7.23913,-0.2913 -9.20541,-2.56901 -1.21112,-1.40294 -2.38336,-2.5508 -2.60497,-2.5508 -0.83957,0 -8.66758,17.88292 -9.88589,22.58411 -1.80946,6.98231 -4.8402,8.4435 -8.76815,4.22733 -2.73171,-2.93214 -2.58868,-4.66503 1.3211,-16.00581 l 3.34218,-9.69437 -3.81128,1.94437 c -6.98076,3.56132 -14.47637,1.7737 -16.8784,-4.02531 l -1.26915,-3.06399 -4.82886,4.51683 c -8.16827,7.64046 -14.44156,5.46552 -14.19834,-4.92253 0.11173,-4.77196 0.96218,-7.4866 6.98953,-22.31063 0.32198,-0.79192 -0.35552,-1.24522 -1.84875,-1.23695 -1.99435,0.0111 -2.87062,1.23552 -5.69534,7.95849 -7.32841,17.44196 -22.94113,36.37619 -34.66165,42.0357 -3.3,1.59348 -8.16766,3.19934 -10.81702,3.56859 l -4.81701,0.67136 0.67629,4.00296 c 0.89563,5.30117 -0.93028,4.1798 -2.41499,-1.48315 -0.8959,-3.41717 -1.96601,-4.77813 -5.37299,-6.83339 -10.7441,-6.48137 -11.70986,-24.06088 -2.4348,-44.32028 1.47041,-3.2118 2.72568,-8.30827 3.13642,-12.73415 1.86219,-20.06529 5.30546,-35.79037 11.79778,-53.87918 3.7088,-10.33342 4.68553,-15.39412 3.24846,-16.83119 -0.27071,-0.27072 -2.24124,0.085 -4.37896,0.79054 l -3.88675,1.28274 0.51323,8.22658 c 0.47529,7.61819 0.31341,8.56757 -2.18889,12.83742 -3.66061,6.24636 -8.52825,10.30215 -17.44849,14.53835 -6.36176,3.02119 -8.79776,3.62019 -16.15247,3.97182 -9.66409,0.46205 -12.08716,-0.33297 -14.84715,-4.87141 l -1.78033,-2.92751 -1.99109,2.24133 c -3.28422,3.69696 -8.82221,11.73225 -14.23273,20.65082 -5.09046,8.39098 -5.09675,8.41195 -2.8551,9.52953 2.68996,1.34109 3.0128,5.35969 0.55513,6.90996 -1.28321,0.80942 -2.1423,0.65895 -3.55929,-0.62341 -1.78335,-1.61391 -1.96266,-1.49516 -3.96473,2.62569 l -2.0969,4.31606 3.24842,7.41634 c 11.81061,26.96432 19.57977,38.79223 36.20374,55.11721 16.56431,16.26639 29.85603,25.25255 44.57033,30.13277 29.41502,9.75592 55.12062,13.30788 76.81612,10.61432 z m -13.98636,-5.39992 c -2.65646,-3.20083 1.24523,-8.11777 4.71013,-5.93574 3.46233,2.18041 2.22883,7.3877 -1.75,7.3877 -0.96531,0 -2.29737,-0.65338 -2.96013,-1.45196 z m 4.52923,-1.65984 c 0.86201,-1.39478 -1.74093,-3.11637 -2.92361,-1.93369 -0.96192,0.96192 -0.0352,3.04549 1.35451,3.04549 0.48508,0 1.19118,-0.50031 1.5691,-1.1118 z m 8.26244,0.64141 c -1.45141,-3.1855 0.46546,-5.75589 3.97499,-5.33017 3.19544,0.38762 4.73056,4.12061 2.57923,6.27194 -2.29054,2.29055 -5.277,1.86143 -6.55422,-0.94177 z m 4.38513,-2.71294 c -1.52752,-1.52752 -2.65464,-0.40039 -1.80743,1.80742 0.50024,1.30358 0.93392,1.43275 1.82354,0.54313 0.88963,-0.88963 0.88579,-1.44865 -0.0161,-2.35055 z m -31.28187,2.0615 c -0.93368,-1.7446 -0.78305,-2.47437 0.84728,-4.1047 2.35819,-2.35818 5.79438,-1.68327 6.74939,1.32567 1.40965,4.44142 -5.37808,6.92451 -7.59667,2.77903 z m 5.0652,-1.37817 c 0,-0.825 -0.675,-1.5 -1.5,-1.5 -0.825,0 -1.5,0.675 -1.5,1.5 0,0.825 0.675,1.5 1.5,1.5 0.825,0 1.5,-0.675 1.5,-1.5 z m 43.58175,2.75 c -0.41337,-0.4125 -2.40087,-0.75 -4.41666,-0.75 -3.04077,0 -3.71958,-0.38372 -3.98499,-2.25264 -0.21217,-1.4941 -3.41117,-4.55417 -9.5,-9.08745 -10.44017,-7.77296 -21.43232,-17.66676 -30.17503,-27.15991 -3.2924,-3.575 -6.05081,-6.63539 -6.12981,-6.80086 -0.079,-0.16547 -3.84319,0.64372 -8.36485,1.7982 -4.52166,1.15448 -8.63551,1.96096 -9.14187,1.79217 -0.50637,-0.16879 3.17371,-1.3557 8.17796,-2.63758 l 9.09864,-2.33068 10.67743,10.87954 c 15.41885,15.71071 34.9413,31.13534 36.91232,29.16432 1.70633,-1.70633 5.2022,0.0341 5.92843,2.95154 0.36738,1.47584 1.38093,3.23154 2.25232,3.90155 0.8714,0.67 1.09686,1.2325 0.50103,1.25 -0.59584,0.0175 -1.42155,-0.3057 -1.83492,-0.7182 z m -3.27893,-3.7363 c 0.10845,-0.54247 -0.59032,-1.13797 -1.55282,-1.32333 -1.0946,-0.2108 -1.75,0.27967 -1.75,1.30963 0,1.73979 2.9553,1.75204 3.30282,0.0137 z m -58.22103,1.08485 c -1.62583,-1.95901 -0.51799,-5.32533 2.01735,-6.13002 2.74063,-0.86984 5.06394,1.32719 4.70142,4.44587 -0.22537,1.93875 -0.94741,2.66079 -2.88616,2.88616 -1.42207,0.1653 -3.14675,-0.3756 -3.83261,-1.20201 z m 4.45933,-1.66508 c 0.92034,-1.48915 -0.14673,-2.29879 -2.06137,-1.56407 -0.88358,0.33906 -1.32643,1.06965 -0.98412,1.62354 0.81058,1.31154 2.21511,1.28411 3.04549,-0.0595 z m 62.50456,0.62157 c -0.65956,-0.79472 -1.05216,-2.48222 -0.87244,-3.75 0.27011,-1.90542 0.93354,-2.30504 3.82676,-2.30504 2.89322,0 3.55665,0.39962 3.82676,2.30504 0.39119,2.75952 -1.40283,5.19496 -3.82676,5.19496 -0.96531,0 -2.29475,-0.65023 -2.95432,-1.44496 z m 4.00714,-3.05504 c -0.0784,-1.48429 -2.31562,-1.2116 -2.83465,0.3455 -0.28038,0.84112 0.17677,1.21599 1.21948,1 0.9174,-0.19002 1.64422,-0.7955 1.61517,-1.3455 z m -84.01295,1.04804 c -2.65449,-3.19847 1.24296,-8.11425 4.71013,-5.9408 2.19517,1.37608 2.86487,5.38775 1.08749,6.51436 -2.02751,1.28515 -4.45428,1.04507 -5.79762,-0.57356 z m 4.46013,-1.54804 c 1.07686,-1.74239 -0.51929,-3.22888 -2.07802,-1.93525 -0.76998,0.63902 -1.15336,1.56088 -0.85195,2.04856 0.72948,1.18032 2.16477,1.12481 2.92997,-0.11331 z m 88.7,-0.2 c -0.66,-0.66 -1.2,-2.22643 -1.2,-3.48095 0,-2.74224 4.19756,-4.22991 6.51299,-2.30827 2.80321,2.32646 1.12671,6.98922 -2.51299,6.98922 -0.88,0 -2.14,-0.54 -2.8,-1.2 z m 3.8,-3.35902 c 0,-1.65007 -1.58044,-1.92885 -2.5,-0.44098 -0.81551,1.31952 0.38021,3.19207 1.5691,2.45729 0.51199,-0.31643 0.9309,-1.22377 0.9309,-2.01631 z m -109.42472,0.64221 c -1.38388,-1.52918 -1.50923,-2.3381 -0.6198,-4 1.4224,-2.65779 5.61892,-2.74695 7.00934,-0.14893 1.33879,2.50156 1.32284,2.63522 -0.53625,4.49431 -2.0808,2.0808 -3.74657,1.98251 -5.85329,-0.34538 z m 4.42472,-2.64221 c 0,-0.79254 -0.675,-1.44098 -1.5,-1.44098 -1.50623,0 -2.05568,2.11099 -0.86052,3.30615 0.93324,0.93324 2.36052,-0.19452 2.36052,-1.86517 z m 112.80122,-0.97792 c -0.94292,-2.06948 -0.86244,-2.83041 0.4368,-4.12965 2.3191,-2.3191 6.76198,-1.01445 6.76198,1.98564 0,4.86215 -5.24814,6.4252 -7.19878,2.14401 z m 4.69878,-2.46306 c -0.48382,-0.78284 -1.05907,-0.84093 -1.72574,-0.17426 -0.55,0.55 -0.67341,1.52841 -0.27426,2.17426 0.48382,0.78284 1.05907,0.84093 1.72574,0.17426 0.55,-0.55 0.67341,-1.52841 0.27426,-2.17426 z m -134.41821,0.59855 c -2.77538,-3.34413 2.17263,-8.29214 5.51676,-5.51676 0.82641,0.68586 1.36731,2.41054 1.20201,3.83261 -0.22537,1.93875 -0.94741,2.66079 -2.88616,2.88616 -1.42207,0.1653 -3.14675,-0.3756 -3.83261,-1.20201 z m 4.91821,-2.09855 c 0,-0.825 -0.64844,-1.5 -1.44098,-1.5 -1.67065,0 -2.79841,1.42728 -1.86517,2.36052 1.19516,1.19516 3.30615,0.64571 3.30615,-0.86052 z m 137.2,-0.7 c -0.66,-0.66 -1.2,-1.9549 -1.2,-2.87756 0,-4.31259 7.22754,-5.34444 7.82676,-1.1174 0.59868,4.22314 -3.76683,6.85489 -6.62676,3.99496 z m 4.01667,-3.98333 c -1.52752,-1.52752 -2.65464,-0.40039 -1.80743,1.80742 0.50024,1.30358 0.93392,1.43275 1.82354,0.54313 0.88963,-0.88963 0.88579,-1.44865 -0.0161,-2.35055 z m -157.17099,0.73837 c -0.65956,-0.79472 -1.05216,-2.48222 -0.87244,-3.75 0.25827,-1.82187 0.9556,-2.30504 3.32676,-2.30504 2.37116,0 3.06849,0.48317 3.32676,2.30504 0.35803,2.52561 -1.35137,5.19496 -3.32676,5.19496 -0.69031,0 -1.79475,-0.65023 -2.45432,-1.44496 z m 4.38429,-3.66835 c -0.85211,-1.37874 -3.42997,-1.04306 -3.42997,0.44664 0,0.73334 0.2961,1.62943 0.65799,1.99133 0.90433,0.90433 3.45253,-1.33682 2.77198,-2.43797 z m 160.37562,-0.59267 c -2.41256,-2.73232 -0.65124,-6.52748 2.83616,-6.11116 3.41442,0.40762 5.26427,3.15312 3.75101,5.56714 -1.52065,2.4258 -4.69419,2.6879 -6.58717,0.54402 z m 4.19441,-2.85304 c 0,-1.65007 -1.58044,-1.92885 -2.5,-0.44098 -0.81551,1.31952 0.38021,3.19207 1.5691,2.45729 0.51199,-0.31643 0.9309,-1.22377 0.9309,-2.01631 z M 183.6744,307.35373 c -0.68372,-1.76778 -0.44159,-2.78802 1.02128,-4.30326 2.53303,-2.62371 5.38968,-0.98323 5.38968,3.09511 0,2.41237 -0.45652,2.94352 -2.75739,3.20815 -2.11919,0.24373 -2.96481,-0.21917 -3.65357,-2 z m 4.73428,-1.48427 c -0.48655,-2.50877 -2.82332,-2.85325 -2.82332,-0.4162 0,1.22833 0.64569,2.08333 1.57332,2.08333 0.93124,0 1.44138,-0.68037 1.25,-1.66713 z M 370.4169,303.0662 c -1.39569,-3.06321 0.27949,-5.52961 3.75572,-5.52961 3.42162,0 5.09533,3.58826 2.83746,6.08319 -2.38935,2.6402 -5.24733,2.40024 -6.59318,-0.55358 z m 5.16846,-2.08863 c 0,-0.79254 -0.675,-1.44098 -1.5,-1.44098 -1.50623,0 -2.05568,2.11099 -0.86052,3.30615 0.93324,0.93324 2.36052,-0.19452 2.36052,-1.86517 z m -201.41761,-0.75708 c -3.56368,-2.60583 0.43064,-8.42497 4.16761,-6.0716 2.46585,1.55288 2.79191,4.51827 0.66761,6.0716 -0.98993,0.72386 -2.07785,1.3161 -2.41761,1.3161 -0.33976,0 -1.42768,-0.59224 -2.41761,-1.3161 z m 4.16761,-2.9339 c -0.22917,-0.6875 -1.01667,-1.25 -1.75,-1.25 -0.73333,0 -1.52083,0.5625 -1.75,1.25 -0.24786,0.74359 0.46111,1.25 1.75,1.25 1.28889,0 1.99786,-0.50641 1.75,-1.25 z m 29.5,1.56067 c 0.9625,-0.25152 2.5375,-0.25152 3.5,0 0.9625,0.25153 0.175,0.45733 -1.75,0.45733 -1.925,0 -2.7125,-0.2058 -1.75,-0.45733 z m 10.01903,-1.00366 c 0.97297,-0.25354 2.32297,-0.23687 3,0.0371 0.67703,0.27393 -0.11903,0.48137 -1.76903,0.46099 -1.65,-0.0204 -2.20394,-0.2445 -1.23097,-0.49804 z m 6.48097,-0.96929 c 0.6875,-0.27741 1.8125,-0.27741 2.5,0 0.6875,0.27741 0.125,0.50439 -1.25,0.50439 -1.375,0 -1.9375,-0.22698 -1.25,-0.50439 z m 5,-1 c 0.6875,-0.27741 1.8125,-0.27741 2.5,0 0.6875,0.27741 0.125,0.50439 -1.25,0.50439 -1.375,0 -1.9375,-0.22698 -1.25,-0.50439 z m 151.82143,-0.90915 c -1.87902,-1.87901 -2.00119,-3.59881 -0.37143,-5.22857 3.62175,-3.62175 9.64522,1.10357 6.22472,4.88319 -2.10672,2.32789 -3.77249,2.42618 -5.85329,0.34538 z m 3.64524,-3.6119 c -1.52752,-1.52752 -2.65464,-0.40039 -1.80743,1.80742 0.50024,1.30358 0.93392,1.43275 1.82354,0.54313 0.88963,-0.88963 0.88579,-1.44865 -0.0161,-2.35055 z M 163.9694,290.095 c -1.17381,-3.0589 0.0633,-5.05841 3.12966,-5.05841 2.38673,0 3.05406,0.47923 3.32379,2.38691 0.51473,3.64037 -5.17744,5.99673 -6.45345,2.6715 z m 4.61596,-1.89174 c 0,-0.73334 -0.2961,-1.62943 -0.65799,-1.99133 -0.90433,-0.90433 -3.45253,1.33682 -2.77198,2.43797 0.85211,1.37874 3.42997,1.04306 3.42997,-0.44664 z m 221.57143,-3.2381 c -1.85909,-1.85909 -1.87504,-1.99275 -0.53625,-4.49431 1.51659,-2.83377 5.74257,-2.51616 7.13328,0.53613 2.04425,4.48663 -3.02629,7.52892 -6.59703,3.95818 z m 3.92857,-3.42857 c -0.48382,-0.78284 -1.05907,-0.84093 -1.72574,-0.17426 -0.55,0.55 -0.67341,1.52841 -0.27426,2.17426 0.48382,0.78284 1.05907,0.84093 1.72574,0.17426 0.55,-0.55 0.67341,-1.52841 0.27426,-2.17426 z m -238.42008,-1.4037 c -2.12245,-2.5574 -0.90997,-5.0963 2.43378,-5.0963 2.65144,0 2.9863,0.33639 2.9863,3 0,2.28 -0.501,3.07158 -2.08751,3.29826 -1.14812,0.16404 -2.64778,-0.37684 -3.33257,-1.20196 z m 4.29508,-1.39405 c 0.79065,-1.27929 -1.04345,-3.52519 -2.2632,-2.77135 -1.60541,0.9922 -1.36774,3.5691 0.32918,3.5691 0.79254,0 1.66285,-0.35899 1.93402,-0.79775 z m 239.375,-3.28235 c -2.72064,-1.58463 -2.22019,-5.74854 0.85955,-7.15177 2.2401,-1.02066 2.80639,-0.91978 4,0.71257 1.80319,2.46602 1.7562,4.0107 -0.18098,5.94787 -1.8215,1.82151 -2.30722,1.87251 -4.67857,0.49133 z m 3.70729,-2.8508 c 0.73955,-1.1966 -1.14162,-2.38223 -2.4736,-1.55902 -1.11836,0.69118 -0.38417,2.48992 1.01631,2.48992 0.48508,0 1.14086,-0.41891 1.45729,-0.9309 z m -255.41742,-3.52106 c -1.6913,-2.03789 -0.93209,-4.67754 1.61586,-5.61809 2.97111,-1.09674 5.45176,1.70626 4.26573,4.82005 -0.97236,2.55283 -4.07578,2.97391 -5.88159,0.79804 z m 4.46013,-2.56174 c 0,-2.1435 -2.90567,-1.8339 -3.32712,0.35451 -0.25736,1.3364 0.14991,1.74367 1.48631,1.48631 1.01244,-0.19498 1.84081,-1.02335 1.84081,-1.84082 z m -12.19053,-9.62222 c -1.4297,-3.72574 4.07062,-7.02088 6.61065,-3.96032 0.68482,0.82514 0.95261,2.42186 0.59511,3.54825 -0.81872,2.57955 -6.25473,2.89041 -7.20576,0.41207 z m 5.19053,-1.43372 c 0,-0.77163 -0.7875,-1.55463 -1.75,-1.73999 -1.72374,-0.33196 -2.43634,1.78995 -1.0625,3.1638 1.04821,1.0482 2.8125,0.15505 2.8125,-1.42381 z m -10.56957,-10.51418 c -1.75398,-2.11343 -0.004,-4.91618 3.06957,-4.91618 3.07357,0 4.82355,2.80275 3.06957,4.91618 -0.72295,0.8711 -2.10426,1.58382 -3.06957,1.58382 -0.96531,0 -2.34662,-0.71272 -3.06957,-1.58382 z m 5.06957,-1.9752 c 0,-1.69692 -2.5769,-1.93459 -3.5691,-0.32918 -0.75384,1.21975 1.49206,3.05385 2.77135,2.2632 0.43876,-0.27117 0.79775,-1.14148 0.79775,-1.93402 z m 120.5,-21.39501 c -10.05617,-4.15951 -8.60062,-18.92272 2.57253,-26.09251 4.02103,-2.58029 4.77445,-3.59507 5.35235,-7.20904 1.18991,-7.44127 11.99394,-15.74442 20.48659,-15.74442 3.15025,0 7.08853,4.34451 7.08853,7.81969 0,3.90229 -2.98512,7.46116 -9.55379,11.39005 -3.96624,2.37231 -5.44621,3.85736 -5.44621,5.46487 0,3.70542 1.89258,3.67663 6.74335,-0.10257 2.54999,-1.98668 5.11341,-3.45565 5.6965,-3.26437 0.58308,0.19127 1.20152,2.28659 1.3743,4.65625 0.26934,3.6938 -0.13246,4.76928 -2.81631,7.53831 -2.9679,3.0621 -3.02316,3.25788 -1.06415,3.77018 2.93299,0.76699 2.56871,3.66241 -1.00649,7.99975 -3.49729,4.24281 -4.86354,4.56065 -7.4272,1.72784 -2.30898,-2.5514 -2.97033,-2.51401 -8.91948,0.50419 -4.9782,2.5256 -9.43265,3.05064 -13.08052,1.54178 z m 14.73249,-5.11065 4.7325,-2.31684 2.33195,2.19076 c 2.94087,2.7628 4.19351,2.75633 6.14636,-0.0317 2.02444,-2.89029 1.9648,-3.43751 -0.4433,-4.06724 -2.94004,-0.76884 -2.44968,-3.06057 1.5,-7.01025 3.16621,-3.16621 4.74311,-7.7 2.67814,-7.7 -0.45202,0 -2.58952,1.33748 -4.75,2.97218 -4.93512,3.7341 -6.00612,3.7446 -7.90246,0.0775 -2.69213,-5.206 -2.05477,-6.5074 5.33794,-10.89933 8.11277,-4.81971 10.62886,-8.84367 7.61328,-12.17585 -2.67097,-2.95139 -8.15509,-2.56443 -13.72596,0.96852 -5.12472,3.25 -7.75094,7.33416 -7.75094,12.05385 0,2.43797 -0.66455,3.45831 -3.12602,4.79966 -5.26726,2.87033 -9.0802,6.4528 -10.50995,9.87468 -2.87869,6.88966 -0.88878,12.5992 4.93078,14.1477 3.65553,0.97269 6.2351,0.39775 12.93768,-2.88357 z m -13.56582,-4.60199 c -0.36667,-0.36666 -0.66667,-1.71716 -0.66667,-3.00111 0,-2.55345 7.26976,-10.33222 9.65612,-10.33222 0.77822,0 2.32547,2.12415 3.43833,4.72034 1.92393,4.48836 1.93674,4.78368 0.26065,6.00927 -3.26676,2.38871 -11.26265,4.02951 -12.68843,2.60372 z m 10.50229,-4.10229 c 0.97998,-0.97998 -0.89583,-6.23104 -2.22588,-6.23104 -0.83238,0 -6.94308,6.74736 -6.94308,7.66647 0,0.89888 8.10323,-0.3697 9.16896,-1.43543 z m 5.2273,-19.64078 c -0.70153,-1.82815 2.2178,-7.6048 4.9617,-9.81802 2.63473,-2.12517 7.64204,-2.35714 7.64204,-0.35403 0,2.85502 -1.34958,4.7571 -5.77027,8.13255 -4.99061,3.81061 -6.0343,4.12211 -6.83347,2.0395 z m 8.16496,-6.65416 c 2.31516,-2.41651 2.51317,-2.91263 0.93709,-2.348 -2.4382,0.87349 -5.49831,3.41521 -5.49831,4.56689 0,1.62338 1.64832,0.82152 4.56122,-2.21889 z m -160.98979,25.49247 c -1.85909,-1.85909 -1.87504,-1.99275 -0.53625,-4.49431 0.5874,-1.09756 2.08617,-1.93426 3.46482,-1.93426 2.03501,0 4.5,2.38985 4.5,4.36283 0,1.04474 -3.20742,3.63717 -4.5,3.63717 -0.74643,0 -2.06429,-0.70714 -2.92857,-1.57143 z m 3.92857,-3.42857 c -0.48382,-0.78284 -1.05907,-0.84093 -1.72574,-0.17426 -0.55,0.55 -0.67341,1.52841 -0.27426,2.17426 0.48382,0.78284 1.05907,0.84093 1.72574,0.17426 0.55,-0.55 0.67341,-1.52841 0.27426,-2.17426 z M 123.55119,193.71 c -1.60067,-1.29614 -2.03072,-2.3936 -1.54171,-3.93433 1.45861,-4.59567 7.57588,-3.50706 7.57588,1.34818 0,3.45157 -3.2469,4.84315 -6.03417,2.58615 z m 4.03417,-2.67341 c 0,-0.825 -0.675,-1.5 -1.5,-1.5 -0.825,0 -1.5,0.675 -1.5,1.5 0,0.825 0.675,1.5 1.5,1.5 0.825,0 1.5,-0.675 1.5,-1.5 z m -4.96013,-10.95196 c -2.65646,-3.20083 1.24523,-8.11777 4.71013,-5.93574 3.46233,2.18041 2.22883,7.3877 -1.75,7.3877 -0.96531,0 -2.29737,-0.65338 -2.96013,-1.45196 z m 4.46013,-3.54804 c -0.48382,-0.78284 -1.05907,-0.84093 -1.72574,-0.17426 -0.55,0.55 -0.67341,1.52841 -0.27426,2.17426 0.48382,0.78284 1.05907,0.84093 1.72574,0.17426 0.55,-0.55 0.67341,-1.52841 0.27426,-2.17426 z m -2.92857,-9.57143 c -2.09654,-2.09654 -1.70485,-4.26976 1.10527,-6.13239 1.96334,-1.30137 2.3871,-1.23238 4.3233,0.70382 1.9362,1.9362 2.00519,2.35996 0.70382,4.3233 -1.86263,2.81012 -4.03585,3.20181 -6.13239,1.10527 z m 4.42857,-2.92857 c 0,-0.825 -0.675,-1.5 -1.5,-1.5 -0.825,0 -1.5,0.675 -1.5,1.5 0,0.825 0.675,1.5 1.5,1.5 0.825,0 1.5,-0.675 1.5,-1.5 z m -1.25,-9.5801 c -3.79933,-2.2129 -1.02392,-8.77639 3.15086,-7.45137 2.86228,0.90846 3.64384,4.2721 1.53429,6.60313 -1.98792,2.19662 -2.27949,2.24941 -4.68515,0.84824 z m 3.25,-3.4199 c 0,-0.825 -0.675,-1.5 -1.5,-1.5 -0.825,0 -1.5,0.675 -1.5,1.5 0,0.825 0.675,1.5 1.5,1.5 0.825,0 1.5,-0.675 1.5,-1.5 z m 0.79699,-9.23912 c -3.54765,-0.81125 -3.2907,-6.65202 0.34338,-7.80543 2.53908,-0.80587 4.85963,1.16713 4.85963,4.13181 0,2.54048 -2.48513,4.29512 -5.20301,3.67362 z m 2.74413,-3.32741 c 0.92034,-1.48915 -0.14673,-2.29879 -2.06137,-1.56407 -0.88358,0.33906 -1.32643,1.06965 -0.98412,1.62354 0.81058,1.31154 2.21511,1.28411 3.04549,-0.0595 z m 0.54461,-10.33017 c -0.68159,-0.82127 -1.09221,-2.53048 -0.91249,-3.79826 0.25514,-1.79983 0.9604,-2.30504 3.21777,-2.30504 3.5645,0 5.61031,2.68396 4.00175,5.25 -1.43573,2.29033 -4.74305,2.73778 -6.30703,0.8533 z m 3.91427,-3.18663 c 0,-0.87084 -0.53438,-1.40521 -1.1875,-1.1875 -1.85422,0.61807 -2.16176,2.77083 -0.39583,2.77083 0.87083,0 1.58333,-0.7125 1.58333,-1.58333 z m 111,0.75187 c 2.2085,-1.4268 26.78627,-7.41297 28.24898,-6.88034 0.68806,0.25056 -0.54898,0.77757 -2.74898,1.17114 -2.2,0.39357 -8.275,1.84666 -13.5,3.22909 -13.55231,3.58568 -13.78607,3.63399 -12,2.48011 z m 33.25,-7.85787 c 0.9625,-0.25152 2.5375,-0.25152 3.5,0 0.9625,0.25153 0.175,0.45733 -1.75,0.45733 -1.925,0 -2.7125,-0.2058 -1.75,-0.45733 z m 60.01903,-0.004 c 0.97297,-0.25354 2.32297,-0.23687 3,0.037 0.67703,0.27393 -0.11903,0.48137 -1.76903,0.46099 -1.65,-0.0204 -2.20394,-0.2445 -1.23097,-0.49804 z m -202.822,-2.36555 c -1.42372,-1.57318 -1.61301,-2.45733 -0.80286,-3.75 2.40403,-3.83585 9.03763,-1.95145 7.74363,2.19972 -1.25017,4.01056 -4.13178,4.65419 -6.94077,1.55028 z m 4.55297,-2.44112 c 0,-0.825 -0.675,-1.5 -1.5,-1.5 -0.825,0 -1.5,0.675 -1.5,1.5 0,0.825 0.675,1.5 1.5,1.5 0.825,0 1.5,-0.675 1.5,-1.5 z m 145.25,3.81067 c 0.9625,-0.25152 2.5375,-0.25152 3.5,0 0.9625,0.25153 0.175,0.45733 -1.75,0.45733 -1.925,0 -2.7125,-0.2058 -1.75,-0.45733 z m 44.51166,-0.0179 c 1.24391,-0.23919 3.04391,-0.23011 4,0.0202 0.95609,0.25029 -0.0617,0.446 -2.26166,0.4349 -2.2,-0.0111 -2.98225,-0.21589 -1.73834,-0.45508 z m -29.51166,-1.02124 c 2.0625,-0.21574 5.4375,-0.21574 7.5,0 2.0625,0.21575 0.375,0.39226 -3.75,0.39226 -4.125,0 -5.8125,-0.17651 -3.75,-0.39226 z m -2.75,-7.33807 c -6.05,-3.22126 -15.68939,-7.53594 -21.42086,-9.588195 -5.73148,-2.052249 -9.95681,-3.886047 -9.38963,-4.075107 2.37661,-0.792203 28.3025,10.218302 40.31049,17.119522 8.69641,4.99798 1.37684,2.33504 -9.5,-3.45622 z m -155.3,-4.13346 c -3.01371,-3.01371 -0.0224,-7.474216 4.28701,-6.39262 1.95475,0.490609 2.51299,1.269155 2.51299,3.50468 0,3.79439 -4.13671,5.55123 -6.8,2.88794 z m 4.3,-3.8 c -0.48382,-0.782845 -1.05907,-0.840935 -1.72574,-0.17426 -0.55,0.55 -0.67341,1.52841 -0.27426,2.17426 0.48382,0.78284 1.05907,0.84093 1.72574,0.17426 0.55,-0.55 0.67341,-1.52841 0.27426,-2.17426 z m 105.5,-9.000005 c -3.575,-0.993622 -5.825,-1.839826 -5,-1.880455 0.825,-0.04063 4.65,0.775234 8.5,1.813026 3.85,1.037793 6.1,1.883997 5,1.880455 -1.1,-0.0035 -4.925,-0.819404 -8.5,-1.813026 z m -10.73097,-2.692991 c 0.97297,-0.253543 2.32297,-0.236869 3,0.03705 0.67703,0.273923 -0.11903,0.481368 -1.76903,0.460988 -1.65,-0.02038 -2.20394,-0.244498 -1.23097,-0.498042 z m -5.51903,-0.96929 c 0.6875,-0.277412 1.8125,-0.277412 2.5,0 0.6875,0.277413 0.125,0.504386 -1.25,0.504386 -1.375,0 -1.9375,-0.226973 -1.25,-0.504386 z m -6.48097,-1.03071 c 0.97297,-0.253543 2.32297,-0.236869 3,0.03705 0.67703,0.273923 -0.11903,0.481368 -1.76903,0.460988 -1.65,-0.02038 -2.20394,-0.244498 -1.23097,-0.498042 z m -10.50737,-1.01427 c 1.24391,-0.239193 3.04391,-0.230112 4,0.02018 0.95609,0.250292 -0.0617,0.445996 -2.26166,0.434897 -2.2,-0.0111 -2.98225,-0.215885 -1.73834,-0.455077 z M 379.9694,77.094998 c -1.5003,-3.909713 2.15961,-7.965323 5.36596,-5.946115 3.77635,2.378169 2.14633,7.387702 -2.40383,7.387702 -1.32492,0 -2.65787,-0.648714 -2.96213,-1.441587 z m 4.11596,-3.558413 c -0.48382,-0.782843 -1.05907,-0.840931 -1.72574,-0.174265 -0.55,0.55 -0.67341,1.528419 -0.27426,2.174265 0.48382,0.782843 1.05907,0.840931 1.72574,0.174265 0.55,-0.55 0.67341,-1.528419 0.27426,-2.174265 z M 369.9694,68.094998 c -1.5003,-3.909713 2.15961,-7.965323 5.36596,-5.946115 3.77635,2.378169 2.14633,7.387702 -2.40383,7.387702 -1.32492,0 -2.65787,-0.648714 -2.96213,-1.441587 z m 4.61596,-1.999396 c 0,-0.792541 -0.41891,-1.699881 -0.9309,-2.016312 -1.18889,-0.734774 -2.38461,1.13778 -1.5691,2.457295 0.91956,1.487871 2.5,1.209092 2.5,-0.440983 z m -14.75,-5.202799 c -0.6875,-0.287586 -1.25,-1.555285 -1.25,-2.817107 0,-4.4495 5.04312,-6.012132 7.3877,-2.289111 2.05967,3.270595 -2.1512,6.773802 -6.1377,5.106218 z m 4.17997,-2.242911 c 0.30141,-0.487681 -0.082,-1.409533 -0.85195,-2.048558 -1.55873,-1.293631 -3.15488,0.192856 -2.07802,1.935251 0.7652,1.238122 2.20049,1.293627 2.92997,0.113307 z M 350.39786,47.853471 c 0.72187,-0.288871 1.58438,-0.253344 1.91667,0.07895 0.33229,0.332292 -0.25834,0.568641 -1.3125,0.52522 -1.16495,-0.04798 -1.4019,-0.284941 -0.60417,-0.604167 z m 34.43869,295.146509 c -1.2066,-0.84514 -2.75432,-3.43264 -3.43938,-5.75 l -1.24557,-4.21339 -0.35464,3.35942 c -0.38421,3.63951 2.75925,8.14058 5.68522,8.14058 1.11748,0 0.93786,-0.42749 -0.64563,-1.53661 z m -200.4175,-6.46445 c 0.24416,-0.73249 -1.95317,0.0596 -4.92518,1.77553 -2.95131,1.70392 -5.55211,3.65634 -5.77957,4.33871 -0.22745,0.68236 1.98887,-0.11662 4.92518,-1.77553 2.9363,-1.6589 5.5371,-3.61132 5.77957,-4.33871 z m 201.72534,-2.61977 c -0.32842,-1.30854 -1.03856,-2.37917 -1.57808,-2.37917 -1.37525,0 -1.22211,4.37088 0.26905,7.67902 l 1.25,2.77314 0.32808,-2.84691 c 0.18045,-1.5658 0.0594,-3.91754 -0.26905,-5.22608 z m -214.33133,0.57084 c 4.22125,-3.05785 3.11106,-4.21095 -1.25519,-1.30371 -3.24514,2.16076 -4.97965,4.37003 -4.9421,6.29483 0.0247,1.26621 0.22702,1.22095 1.07766,-0.24112 0.57599,-0.98999 2.87983,-3.12749 5.11963,-4.75 z m 2.88615,3.86585 c 2.13738,-1.20128 3.88615,-2.82197 3.88615,-3.60154 0,-1.05384 -1.08037,-0.77938 -4.21196,1.07002 -2.31658,1.36809 -4.37908,2.98878 -4.58333,3.60154 -0.54015,1.62043 0.54166,1.38464 4.90914,-1.07002 z m 16.17626,-0.81724 c 0.28785,-1.10076 0.11534,-1.7492 -0.38337,-1.44098 -0.49871,0.30822 -0.90674,1.20884 -0.90674,2.00138 0,2.06975 0.6795,1.77459 1.29011,-0.5604 z m 199.17813,-4.36187 c -0.37499,-2.50061 -1.2825,-5.35435 -2.01669,-6.34165 -1.14998,-1.54644 -1.21229,-1.24101 -0.44979,2.2049 0.48681,2.2 1.15747,5.2906 1.49034,6.868 0.95161,4.50937 1.73375,2.32091 0.97614,-2.73125 z m -190.73907,3.75908 c -0.3323,-0.33229 -1.1948,-0.36781 -1.91667,-0.0789 -0.79773,0.31922 -0.56078,0.55618 0.60417,0.60416 1.05416,0.0434 1.64479,-0.19293 1.3125,-0.52522 z m 197.53988,-8.14583 c -0.42298,-1.5125 -0.76905,-4.60521 -0.76905,-6.87268 0,-2.5451 -0.41391,-3.96385 -1.08166,-3.70761 -0.59491,0.22829 -1.82757,-1.48384 -2.73925,-3.80474 -2.73091,-6.95223 -2.86697,-3.76767 -0.17694,4.14136 1.37382,4.03919 2.49785,8.31516 2.49785,9.50216 0,2.27168 0.76362,3.49151 2.18572,3.49151 0.46881,0 0.50631,-1.2375 0.0833,-2.75 z m 5.10487,-3.10426 c -0.33652,-1.45516 -1.3303,-3.77074 -2.2084,-5.14574 -1.29545,-2.02852 -1.66129,-2.18417 -1.93986,-0.82531 -0.18881,0.92109 0.14544,3.48975 0.74279,5.70815 0.77952,2.89492 1.4998,3.87471 2.55171,3.47105 1.01406,-0.38913 1.2771,-1.37754 0.85376,-3.20815 z m 3.93733,0.60426 c -1.3318,-5.97508 -2.64336,-8.85737 -4.47698,-9.8387 -1.10306,-0.59034 -2.26702,-0.81188 -2.58658,-0.49232 -0.31956,0.31956 -0.0652,0.58102 0.56532,0.58102 1.43153,0 5.18699,7.21132 5.18699,9.96016 0,1.12191 0.40787,2.03984 0.90638,2.03984 0.49851,0 0.6807,-1.0125 0.40487,-2.25 z m 3.37186,-4.9375 c -0.31922,-0.79773 -0.55618,-0.56078 -0.60416,0.60417 -0.0434,1.05416 0.19293,1.64479 0.52522,1.3125 0.33229,-0.33229 0.36781,-1.1948 0.0789,-1.91667 z m 4.27267,-11.01049 c -1.17079,-4.24023 -3.38294,-6.53791 -4.52126,-4.69606 -0.47138,0.76271 -0.32096,0.9419 0.41097,0.48954 0.63498,-0.39244 1.15451,-0.29192 1.15451,0.22337 0,1.49207 3.07386,8.44061 3.53148,7.983 0.22787,-0.22788 -0.0312,-2.02781 -0.5757,-3.99985 z m 8.39639,-2.05201 c -2.66237,-4.34537 -5.35217,-7.88279 -5.35217,-7.03877 0,2.58078 2.33126,7.2186 3.82746,7.61436 0.9199,0.24333 1.8116,0.49461 1.98156,0.55841 0.16996,0.0638 -0.0356,-0.4465 -0.45685,-1.134 z m 2.17175,-4.67464 c -0.36228,-1.14145 -1.30337,-2.07536 -2.09131,-2.07536 -0.78793,0 -1.43261,-0.525 -1.43261,-1.16667 0,-0.64166 -0.27409,-0.89257 -0.60909,-0.55757 -0.335,0.335 0.38909,2.01091 1.60909,3.72424 2.39811,3.36783 3.58011,3.40313 2.52392,0.0754 z m -4.02392,-6.07536 c 0.33992,-0.55 0.14148,-1 -0.44098,-1 -0.58246,0 -1.05902,0.45 -1.05902,1 0,0.55 0.19844,1 0.44098,1 0.24254,0 0.7191,-0.45 1.05902,-1 z m -122.18498,-8.55383 c 0.32153,-1.98132 4.16122,-11.32974 8.53266,-20.77428 4.37144,-9.44454 8.63471,-18.83222 9.47394,-20.8615 0.83922,-2.02929 3.46325,-5.85429 5.83117,-8.5 2.36792,-2.64572 3.11055,-3.75074 1.65028,-2.45562 -2.67989,2.37683 -4.80307,2.20947 -4.80307,-0.3786 0,-1.74427 -3.9339,-3.96803 -4.98656,-2.81881 -0.42451,0.46345 -1.33601,2.64264 -2.02555,4.84264 -2.75483,8.78935 -7.11262,16.75897 -12.1595,22.23761 -2.91955,3.16931 -4.1588,4.74989 -2.75388,3.51239 3.07929,-2.71235 5.38418,-2.9626 4.60516,-0.5 -0.30448,0.9625 -2.20895,5.7558 -4.23215,10.65179 -4.60566,11.1453 -5.45526,16.38816 -2.95228,18.21839 2.38659,1.74511 3.12048,1.13529 3.81978,-3.17401 z m 132.68498,4.16082 c 0,-0.21616 -0.675,-0.65203 -1.5,-0.96862 -0.825,-0.31658 -1.5,-0.13972 -1.5,0.39301 0,0.53274 0.675,0.96862 1.5,0.96862 0.825,0 1.5,-0.17686 1.5,-0.39301 z m 3.9922,-1.35699 c -0.009,-0.82984 -4.79381,-3.25 -6.42596,-3.25 -0.56927,0 0.53294,0.87417 2.44936,1.94261 4.12921,2.30209 3.98646,2.25516 3.9766,1.30739 z m -218.4922,-4.14349 4,-1.84104 -4.58429,0.47864 c -8.20078,0.85623 -12.8914,-3.48624 -14.47709,-13.40257 -0.81283,-5.08318 0.94353,-13.69117 4.76256,-23.34154 6.88214,-17.39057 20.01956,-33 27.77391,-33 5.26508,0 4.59497,12.15206 -1.10393,20.01916 -1.66016,2.29178 -2.87282,4.28906 -2.69481,4.4384 2.36216,1.98176 5.10678,2.55274 6.54605,1.36183 4.64,-3.8393 6.767,-16.03853 3.79758,-21.78075 -9.17583,-17.7441 -35.60352,0.71422 -46.7605,32.65968 -5.59853,16.03012 -3.7904,27.99883 5.1384,34.01298 4.24563,2.85971 11.87534,3.03102 17.60212,0.39521 z m 223.89296,-1.08479 c -1.15888,-0.46833 -3.52138,-2.56733 -5.25,-4.66446 -3.41494,-4.1429 -3.99947,-3.91425 -1.64298,0.6427 1.70102,3.2894 4.07663,4.95445 7.00002,4.90625 1.92081,-0.0317 1.91657,-0.0667 -0.10704,-0.88449 z m 0.19985,-4.69636 c -0.32439,-1.00395 -1.71603,-2.34578 -3.09253,-2.98185 -2.83149,-1.30842 -2.61608,-0.41357 0.8191,3.40255 2.25547,2.5056 3.1646,2.33736 2.27343,-0.4207 z m -200.5782,-14.2419 c 2.70133,-3.97548 2.74157,-4.1192 0.30334,-1.08346 -1.54612,1.925 -5.49976,6.425 -8.78587,10 l -5.97476,6.5 5.67142,-5.41654 c 3.11928,-2.9791 7.07292,-7.4791 8.78587,-10 z m 181.84042,1.66654 c 7.71948,-10.33906 10.96969,-19.58296 14.03003,-39.90273 7.11568,-47.24599 4.03525,-92.8809 -8.01983,-118.80945 -3.59452,-7.73126 -5.03051,-9.51853 -16.62478,-20.69169 -6.97973,-6.726223 -12.77316,-12.14324 -12.87428,-12.037816 -0.10113,0.105425 0.0626,3.239684 0.36376,6.96502 0.47063,5.820892 0.7895,6.696574 2.26767,6.227422 2.23153,-0.708261 4.24509,1.760174 3.82916,4.694197 -0.23479,1.656262 -1.08612,2.392689 -3.02469,2.61644 -2.97702,0.343612 -3.09568,0.788482 -4.31822,16.188607 -1.20826,15.22025 -7.08388,38.86683 -14.53588,58.5 -1.05593,2.78199 -0.71924,3.69035 4.63322,12.5 9.72447,16.00555 19.45262,39.16318 23.31768,55.50719 1.11754,4.72567 1.3645,5.00678 4.39262,5 2.74883,-0.006 3.25336,0.38181 3.52157,2.70793 0.2569,2.22812 -0.167,2.83561 -2.36332,3.38685 -2.50061,0.62761 -2.63549,0.94184 -2.05391,4.78488 0.34234,2.26223 0.9086,7.15065 1.25835,10.86315 0.34974,3.7125 1.00605,6.75 1.45846,6.75 0.45241,0 2.58649,-2.3625 4.74239,-5.25 z m -3.10503,-29.8301 c -3.68079,-2.14386 -0.89803,-7.73643 3.20201,-6.43513 2.2904,0.72694 2.7812,4.38202 0.84799,6.31523 -1.4329,1.4329 -1.77816,1.44312 -4.05,0.1199 z m 3.75,-2.98954 c 0,-0.77163 -0.7875,-1.55463 -1.75,-1.73999 -1.72374,-0.33196 -2.43634,1.78995 -1.0625,3.1638 1.04821,1.0482 2.8125,0.15505 2.8125,-1.42381 z m -0.26168,-10.09204 c -2.90341,-2.90341 -0.12488,-7.57187 3.77068,-6.33546 1.65586,0.52555 2.03947,1.34325 1.79798,3.83261 -0.33528,3.4563 -3.28807,4.78344 -5.56866,2.50285 z m 4.26168,-2.85202 c 0,-2.1435 -2.90567,-1.8339 -3.32712,0.35451 -0.25736,1.3364 0.14991,1.74367 1.48631,1.48631 1.01244,-0.19498 1.84081,-1.02335 1.84081,-1.84082 z m -1.46013,-10.43826 c -2.64768,-3.19026 1.25886,-8.20486 4.37631,-5.61761 1.88116,1.56123 2.0537,4.19969 0.38382,5.86957 -1.60329,1.60329 -3.29471,1.51376 -4.76013,-0.25196 z m 4.46013,-2.54804 c 0,-0.80994 -0.7875,-1.62427 -1.75,-1.80963 -1.22785,-0.23646 -1.75,0.30348 -1.75,1.80963 0,1.50615 0.52215,2.04609 1.75,1.80963 0.9625,-0.18536 1.75,-0.99969 1.75,-1.80963 z M 425.9694,199.095 c -1.06518,-2.77582 0.0723,-5.05841 2.52067,-5.05841 2.75346,0 4.69507,2.49461 3.78582,4.86408 -0.77838,2.02843 -5.5463,2.17536 -6.30649,0.19433 z m 4.72556,-2.84881 c -0.53634,-0.53634 -1.73109,-0.68509 -2.65501,-0.33055 -1.3705,0.52591 -1.45052,0.92093 -0.43454,2.14511 0.96655,1.16462 1.56087,1.23861 2.65501,0.33055 0.91587,-0.7601 1.06809,-1.51156 0.43454,-2.14511 z m -4.09882,-10.19661 c -0.70782,-0.85288 -0.96514,-2.55869 -0.6034,-4 0.49605,-1.9764 1.26317,-2.51299 3.59262,-2.51299 2.32945,0 3.09657,0.53659 3.59262,2.51299 0.72311,2.88112 -0.9831,5.48701 -3.59262,5.48701 -0.96531,0 -2.31046,-0.66916 -2.98922,-1.48701 z m 4.65339,-2.08021 c 0.83346,-2.17196 -1.28244,-4.21451 -2.79695,-2.7 -1.28004,1.28004 -0.48705,4.26722 1.13278,4.26722 0.58452,0 1.3334,-0.70525 1.66417,-1.56722 z m -4.46417,-11.63278 c -1.93321,-1.93321 -1.44241,-5.58829 0.84799,-6.31523 2.38529,-0.75706 4.95201,1.02475 4.95201,3.43767 0,1.90787 -1.86237,4.07756 -3.5,4.07756 -0.605,0 -1.64,-0.54 -2.3,-1.2 z m 3.62332,-3.13287 c 0.18707,-0.96457 -0.31483,-1.66713 -1.19098,-1.66713 -1.85773,0 -2.97896,1.63015 -2.09972,3.05279 0.90454,1.46356 2.90118,0.62281 3.2907,-1.38566 z m -6.41358,-11.04175 c -1.19844,-3.12308 0.0142,-5.12538 3.10396,-5.12538 2.65144,0 2.9863,0.33639 2.9863,3 0,2.53088 -0.43092,3.04957 -2.75569,3.31697 -1.75858,0.20228 -2.96514,-0.22887 -3.33457,-1.19159 z m 4.89308,-2.11168 c 0.10845,-0.54247 -0.59032,-1.13797 -1.55282,-1.32333 -1.0946,-0.2108 -1.75,0.27967 -1.75,1.30963 0,1.73979 2.9553,1.75204 3.30282,0.0137 z m -8.21988,-11.7637 c -1.06225,-2.80323 0.36422,-4.75 3.48049,-4.75 2.23049,0 3.82147,1.39819 3.98261,3.5 0.29103,3.79609 -6.0931,4.86537 -7.4631,1.25 z m 5.21988,-1.2363 c 0.10845,-0.54247 -0.59032,-1.13797 -1.55282,-1.32333 -1.0946,-0.2108 -1.75,0.27967 -1.75,1.30963 0,1.73979 2.9553,1.75204 3.30282,0.0137 z m -8.72754,-10.43051 c -2.48794,-2.74915 -0.51931,-6.32766 3.24198,-5.89312 3.33674,0.38549 4.33843,4.4917 1.58658,6.5039 -2.34397,1.71396 -2.77391,1.65957 -4.82856,-0.61078 z m 4.42472,-2.64221 c 0,-1.46997 -2.13489,-1.97276 -3.32466,-0.78299 -0.90433,0.90433 1.33682,3.45253 2.43797,2.77198 0.48768,-0.3014 0.88669,-1.19645 0.88669,-1.98899 z m -9.75702,-9.598 c -3.19778,-3.19778 0.15532,-7.39979 4.57416,-5.7322 3.35271,1.26525 2.73592,6.26616 -0.82416,6.6822 -1.37887,0.16113 -3.06637,-0.26637 -3.75,-0.95 z m 4.52785,-2.65548 c 0.22111,-0.66333 -0.52375,-1.1875 -1.6875,-1.1875 -2.07732,0 -2.69993,1.05007 -1.39583,2.35417 0.92647,0.92647 2.59622,0.29467 3.08333,-1.16667 z M 404.9694,108.095 c -1.15612,-3.0128 0.0654,-5.05841 3.02067,-5.05841 3.58571,0 5.55383,2.64011 3.66486,4.91618 -1.64253,1.97912 -5.94552,2.07067 -6.68553,0.14223 z m 4.91878,-2.04471 c 0.10845,-0.54247 -0.59032,-1.13797 -1.55282,-1.32333 -1.0946,-0.2108 -1.75,0.27967 -1.75,1.30963 0,1.73979 2.9553,1.75204 3.30282,0.0137 z m 34.69718,164.10293 c 0,-0.21085 -0.90062,-0.61888 -2.00138,-0.90674 -1.10076,-0.28785 -1.7492,-0.11534 -1.44098,0.38337 0.53825,0.87091 3.44236,1.31244 3.44236,0.52337 z m 4.30167,-1.57106 c -0.38267,-1.46331 -1.6784,-2.10205 -5.15638,-2.54187 -2.55491,-0.3231 -5.64417,-0.7286 -6.86503,-0.90112 -1.22085,-0.17252 -1.9818,0.0713 -1.69098,0.54188 0.29081,0.47055 2.47734,0.85554 4.85895,0.85554 2.83888,0 5.14326,0.67734 6.69099,1.96673 1.29843,1.0817 2.43115,1.9817 2.51716,2 0.086,0.0183 -0.0736,-0.84622 -0.35471,-1.92116 z m -185.46782,0.0783 c 1.07393,-0.68077 1.02522,-0.96395 -0.25,-1.4533 -2.45998,-0.94398 -1.98399,-2.73799 3.91615,-14.75989 5.33687,-10.8742 6.80589,-16.98554 4.43511,-18.45076 -0.58568,-0.36198 -2.6027,-0.36964 -4.48225,-0.017 -2.99797,0.56242 -3.27827,0.86383 -2.28394,2.456 0.91651,1.46758 0.40036,3.51686 -2.69703,10.70802 -4.45705,10.34785 -5.58827,18.13387 -3.00934,20.7128 1.89688,1.89689 2.47865,2.00391 4.3713,0.80416 z m 24.66615,-0.12387 c 1.98002,-0.85084 1.97952,-0.86013 -0.05,-0.92971 -3.30393,-0.11328 -4.45,-2.12278 -4.45,-7.80251 0,-4.59508 0.31105,-5.45725 2.25,-6.23662 1.2375,-0.49741 1.6875,-0.93291 1,-0.96777 -4.91716,-0.24935 6.2142,-18.06339 11.28717,-18.06339 1.77414,0 2.42937,0.65604 2.74658,2.75 l 0.41659,2.75 0.14983,-2.71482 c 0.34428,-6.23803 -9.12016,-5.61765 -15.52398,1.01757 -4.58144,4.74699 -12.82203,20.19725 -10.77245,20.19725 0.79544,0 1.44626,0.92958 1.44626,2.06574 0,3.06856 1.71232,5.71333 4.77514,7.37546 3.10867,1.68701 3.93884,1.75599 6.72486,0.5588 z m 40.5,-1.34501 c 0,-1.28976 0.94788,-3.20226 2.10641,-4.25 2.87751,-2.60235 5.9993,-8.89293 7.39682,-14.90499 2.09075,-8.99431 -1.1401,-14.51591 -8.47574,-14.48526 -3.472,0.0145 -3.48869,0.0344 -1.06128,1.26269 1.38124,0.69893 2.87067,2.65822 3.38558,4.4536 1.90163,6.6306 -6.90409,25.71202 -13.37711,28.98732 -2.24157,1.13421 -1.88594,1.25356 3.77532,1.26691 5.89404,0.0139 6.25,-0.11882 6.25,-2.33027 z m 29,1.61973 c 2.49283,-0.69597 2.49139,-0.69953 -0.5,-1.24254 -2.9146,-0.52907 -3.00849,-0.72272 -3.29809,-6.80281 -0.27298,-5.73107 -0.10451,-6.33592 2,-7.18042 1.26395,-0.5072 1.73559,-0.9507 1.04809,-0.98556 -0.6875,-0.0349 -1.24578,-0.85089 -1.24062,-1.81339 0.0139,-2.59865 5.2957,-11.33115 9.13297,-15.0998 l 3.35765,-3.29761 -3,0.66799 c -5.78367,1.28781 -10.61883,5.64043 -14.90281,13.41551 -2.25345,4.08985 -6.77448,10.38985 -10.04672,14 -5.45716,6.0207 -5.53708,6.17082 -0.96565,1.81391 5.71373,-5.4456 7.41518,-5.8982 7.41518,-1.97251 0,3.33448 2.41377,7.04319 5.357,8.23093 2.72224,1.09856 2.67071,1.09613 5.643,0.2663 z m 28.5,-1.18143 c 2.2,-1.02453 6.25,-4.27519 9,-7.22369 2.75,-2.9485 4.3475,-4.80036 3.55,-4.11525 -2.6644,2.2889 -4.04888,1.43742 -4.07196,-2.50435 -0.0235,-4.01445 -2.58786,-10.48894 -6.11783,-15.44632 -1.94997,-2.73848 -2.04378,-3.40712 -0.91572,-6.52671 1.46587,-4.05379 0.38474,-5.83363 -2.90858,-4.78837 -2.80013,0.88873 -4.01661,4.26832 -2.79636,7.76873 0.53065,1.52223 0.70796,3.43706 0.39402,4.25518 -0.35092,0.9145 0.0146,1.48749 0.94884,1.48749 3.32445,0 6.30866,12.97709 4.51554,19.63623 -1.14409,4.24883 -4.31032,7.85261 -7.59795,8.64794 l -2,0.48383 2,0.094 c 1.1,0.0517 3.8,-0.74422 6,-1.76875 z m -70.5,-1.59329 c 0,-1.375 -0.45,-2.5 -1,-2.5 -1.11717,0 -1.3707,3.29596 -0.33333,4.33333 1.10234,1.10234 1.33333,0.78473 1.33333,-1.83333 z m -47,-1 c 1.29175,-1.375 2.12363,-2.5 1.84863,-2.5 -0.275,0 -1.55688,1.125 -2.84863,2.5 -1.29175,1.375 -2.12363,2.5 -1.84863,2.5 0.275,0 1.55688,-1.125 2.84863,-2.5 z m 24.49292,1.51145 c 0.35034,-0.56686 -0.0511,-0.7345 -0.94098,-0.39301 -1.73242,0.66479 -2.04939,1.38156 -0.61096,1.38156 0.51754,0 1.21592,-0.44485 1.55194,-0.98855 z m 70,0 c 0.35034,-0.56686 -0.0511,-0.7345 -0.94098,-0.39301 -1.73242,0.66479 -2.04939,1.38156 -0.61096,1.38156 0.51754,0 1.21592,-0.44485 1.55194,-0.98855 z m 20.04099,-2.04892 c 2.35103,-2.59786 3.15204,-12.35405 1.44018,-17.54105 l -1.25097,-3.79047 -2.4866,4.89282 c -1.36763,2.69105 -2.04414,5.0403 -1.50337,5.22055 0.54078,0.18026 1.83454,0.96016 2.87504,1.73311 1.50651,1.11915 1.66734,1.77371 0.78968,3.21394 -0.60617,0.99471 -2.06867,1.95237 -3.25,2.12812 -1.47052,0.21878 -2.14787,1.03345 -2.14787,2.58333 0,4.1069 2.57254,4.83193 5.53391,1.55965 z m -14.971,-2.21253 2.93709,-3.25 -3.25,2.93709 c -3.02946,2.73778 -3.70965,3.56291 -2.93709,3.56291 0.1721,0 1.6346,-1.4625 3.25,-3.25 z m -46.89906,0.5 c 2.25843,-2.85499 6.43321,-11.24873 5.603,-11.26531 -0.42177,-0.008 -0.1674,-0.39532 0.56526,-0.85977 0.75396,-0.47795 1.57376,-3.5094 1.88889,-6.98468 0.51727,-5.70456 0.41132,-6.14024 -1.49322,-6.14024 -2.89957,0 -6.99747,5.26508 -10.89644,14 -1.84127,4.125 -3.86635,8.4 -4.5002,9.5 -1.00403,1.74242 -0.9549,1.83679 0.38146,0.73275 1.74748,-1.44371 4.37002,-0.7628 5.1787,1.34457 0.72211,1.88179 1.59402,1.79458 3.27255,-0.32732 z m -74.53541,-5.75 0.98189,-2 -1.62844,2 c -0.89564,1.1 -2.07029,2.9 -2.61033,4 l -0.98189,2 1.62844,-2 c 0.89564,-1.1 2.07029,-2.9 2.61033,-4 z m 163.37156,4.5 c 1.07686,-1.74239 -0.51929,-3.22888 -2.07802,-1.93525 -0.76998,0.63902 -1.15336,1.56088 -0.85195,2.04856 0.72948,1.18032 2.16477,1.12481 2.92997,-0.11331 z m -29.5,-4 c 0,-0.55 -0.70156,-1 -1.55902,-1 -0.85746,0 -1.2809,0.45 -0.94098,1 0.33992,0.55 1.04148,1 1.55902,1 0.51754,0 0.94098,-0.45 0.94098,-1 z m -129,-9.3578 c 0,-1.27054 -0.4619,-0.70323 -1.91971,2.3578 -1.12265,2.35727 -1.10183,2.38918 0.36454,0.55887 0.85535,-1.06762 1.55517,-2.38012 1.55517,-2.91667 z m 165.32466,1.69981 c 0.36189,-0.3619 0.15219,-1.26744 -0.46601,-2.01233 -0.8443,-1.01731 -1.46153,-1.07423 -2.48032,-0.2287 -0.74597,0.6191 -1.10971,1.52465 -0.8083,2.01233 0.64272,1.03995 2.81129,1.17204 3.75463,0.2287 z m -120.00574,-8.72481 c 1.05823,-2.03916 1.64714,-3.98447 1.3087,-4.32292 -1.03382,-1.03381 -4.18381,2.47302 -7.16595,7.97771 l -2.83224,5.22801 3.38272,-2.58762 c 1.86049,-1.42319 4.24854,-4.25602 5.30677,-6.29518 z m -0.31892,5.8828 c 1.29175,-1.375 2.12363,-2.5 1.84863,-2.5 -0.275,0 -1.55688,1.125 -2.84863,2.5 -1.29175,1.375 -2.12363,2.5 -1.84863,2.5 0.275,0 1.55688,-1.125 2.84863,-2.5 z m 68.34329,-2.76343 c 2.83178,-3.78015 4.25089,-7.73657 2.77499,-7.73657 -1.2176,0 -5.22838,5.20791 -7.56089,9.81765 -1.64793,3.25681 -1.64167,3.29782 0.3413,2.23657 1.11101,-0.59459 3.11108,-2.53754 4.4446,-4.31765 z m 1.15671,3.26343 c 0.99549,-1.1 1.58498,-2 1.30998,-2 -0.275,0 -1.31449,0.9 -2.30998,2 -0.99549,1.1 -1.58498,2 -1.30998,2 0.275,0 1.31449,-0.9 2.30998,-2 z m 5.16228,-11.25 c -0.27741,-0.6875 -0.50439,-0.125 -0.50439,1.25 0,1.375 0.22698,1.9375 0.50439,1.25 0.27741,-0.6875 0.27741,-1.8125 0,-2.5 z m -110.66228,-0.71057 c -2.05936,-0.50942 -2.5572,-1.31425 -2.82451,-4.56624 -0.41747,-5.07864 -1.7535,-6.7694 -4.2805,-5.41699 -2.56467,1.37257 -2.41189,5.50333 0.32582,8.80906 1.82958,2.20919 2.84251,2.60328 5.75,2.23708 3.21115,-0.40444 3.3039,-0.50023 1.02919,-1.06291 z m -126.44615,-4.12656 c 1.03052,-1.66742 -1.28721,-3.57951 -2.66672,-2.2 -1.15392,1.15392 -0.43172,3.28713 1.11287,3.28713 0.48508,0 1.18431,-0.48921 1.55385,-1.08713 z m -2.98475,-13.02467 c 0.86201,-1.39478 -1.74093,-3.11637 -2.92361,-1.93369 -0.96192,0.96192 -0.0352,3.04549 1.35451,3.04549 0.48508,0 1.19118,-0.50031 1.5691,-1.1118 z m 44.7376,-18.37987 c 11.71119,-3.05037 21.90812,-10.08876 25.87154,-17.85771 1.61879,-3.1731 1.93006,-5.22602 1.52656,-10.06821 -0.27877,-3.34533 -0.81443,-7.03965 -1.19035,-8.20961 -0.59394,-1.8485 -0.0595,-2.33982 4.07917,-3.75 6.81926,-2.32355 8.13839,-2.11944 8.90659,1.37814 0.71369,3.24942 4.08524,4.84549 7.24755,3.43097 1.51699,-0.67856 1.43563,-0.83854 -0.60601,-1.19159 -2.06489,-0.35706 -2.27996,-0.80168 -1.72889,-3.57406 0.34615,-1.74144 4.38854,-11.26626 8.98309,-21.16626 11.93508,-25.71683 13.49813,-31.5164 8.82093,-32.72927 -2.6386,-0.68423 -4.21688,0.19654 -4.21688,2.35326 0,1.84203 -6.22272,17.71177 -11.44839,29.19675 -1.29612,2.84859 -3.39729,8.17617 -4.66928,11.83905 l -2.31272,6.6598 -6.93774,2.08572 c -5.2,1.5633 -7.27516,1.8057 -8.28481,0.96776 -2.14145,-1.77724 -1.65639,-2.78943 3.60258,-7.5177 12.7352,-11.45004 13.6382,-27.82499 1.97993,-35.90418 -4.58567,-3.17787 -12.79807,-5.44683 -19.42957,-5.36808 l -5,0.0594 6.5,1.84808 c 5.16167,1.46757 7.25267,2.69285 10.15559,5.95098 7.43187,8.34126 7.07134,20.06392 -0.89153,28.98797 l -3.76406,4.21841 -4.80766,-1.29679 c -4.0849,-1.10183 -5.19756,-1.07536 -7.40122,0.17604 -6.64986,3.77632 -5.44172,7.85614 2.7939,9.43483 4.30279,0.8248 5.47585,1.46377 5.71133,3.11098 0.23859,1.66887 -1.12597,2.81491 -7,5.87902 -12.83107,6.69316 -21.61393,13.67421 -25.45983,20.23674 l -2.61472,4.46168 1.9855,2.67479 c 3.97167,5.35049 9.3312,6.35765 19.5994,3.68312 z m -17.73527,-3.07976 c -5.38244,-5.38243 4.60571,-16.42096 24.10089,-26.6354 4.49478,-2.35502 8.47011,-3.98407 8.83408,-3.6201 1.36306,1.36305 1.65376,8.51841 0.51753,12.73808 -1.66403,6.17973 -9.78088,14.10592 -17.34243,16.93506 -6.84506,2.56106 -13.87717,2.81526 -16.11007,0.58236 z m 17.14019,-3.15878 c 5.50753,-2.60769 12.68211,-9.54498 14.31605,-13.84256 1.09676,-2.88472 1.32674,-11.42723 0.30764,-11.42723 -1.37946,0 -16.04485,8.47163 -21.02385,12.14466 -16.52583,12.1912 -11.85554,21.76879 6.40016,13.12513 z m 12.28838,-30.36355 c 0,-1.81842 -2.06809,-1.83826 -4.20588,-0.0403 -8.69399,7.31178 -8.7596,7.44068 -2.04412,4.01592 3.4375,-1.75306 6.25,-3.54207 6.25,-3.97558 z m -19.06687,-2.07739 c 0.68734,-2.29413 4.07318,-9.65564 7.52408,-16.35891 8.40864,-16.33349 9.00509,-21.46994 2.4931,-21.46994 -2.34789,0 -2.95031,0.43692 -2.95031,2.13978 0,1.17689 -2.66179,8.03939 -5.9151,15.25 -6.96416,15.43536 -8.41098,20.13242 -7.00852,22.75294 1.77508,3.31677 4.49128,2.24366 5.85675,-2.31387 z m 70.26687,2.97115 c -2.01473,-2.01473 -1.39773,-4.44231 3.72219,-14.64495 5.89896,-11.75504 6.96753,-16.12248 4.53886,-18.55114 -2.38238,-2.38238 -4.90012,-1.61329 -5.27324,1.6108 -0.17171,1.48368 -2.69062,7.44233 -5.59759,13.24145 -3.64288,7.26718 -4.84567,10.54384 -3.87042,10.54384 0.92655,0 1.21033,0.64477 0.82212,1.86792 -1.07139,3.37565 1.10562,7.13208 4.13333,7.13208 2.11925,0 2.45808,-0.26667 1.52475,-1.2 z m 17.30099,-0.79891 c -1.76036,-1.94518 -1.65994,-2.30132 3.73615,-13.25 6.90156,-14.00327 7.43174,-16.08221 4.77809,-18.73586 -2.47743,-2.47743 -3.90947,-2.55964 -4.61974,-0.26523 -2.11322,6.82638 -6.3969,16.50097 -9.07693,20.5 -2.21667,3.30762 -2.74836,4.75 -1.75094,4.75 0.87099,0 1.43238,1.00559 1.43238,2.56574 0,4.00926 1.76767,6.43426 4.69017,6.43426 2.55599,0 2.57574,-0.0487 0.81082,-1.99891 z m 24.99901,1.29855 c -1.1,-0.2576 -2.5625,-1.19141 -3.25,-2.07513 -1.7458,-2.24408 -1.64085,-11.13729 0.13949,-11.82048 0.76422,-0.29326 1.19361,-1.29163 0.95419,-2.21861 -0.57472,-2.22521 4.75974,-11.95226 8.54211,-15.576 3.33627,-3.19635 5.74341,-2.97724 6.38858,0.58152 0.41096,2.26682 0.41686,2.26517 0.32213,-0.0901 -0.0531,-1.31952 -0.84212,-2.8658 -1.75342,-3.43617 -2.54441,-1.5925 -9.30729,0.86619 -13.26291,4.82181 -3.90763,3.90763 -12.07833,18.84745 -10.58081,19.34662 0.55035,0.18345 1.00064,1.22563 1.00064,2.31595 0,5.20659 3.94434,8.82007 9.5,8.70313 2.2,-0.0463 3.1,-0.29496 2,-0.55256 z m 29.28984,-1.21712 c 2.04059,-1.05461 5.73516,-4.09131 8.21016,-6.74822 2.475,-2.6569 3.8475,-4.26904 3.05,-3.58252 -2.727,2.34751 -3.88333,1.41601 -3.88333,-3.12827 0,-4.34681 -2.46377,-10.4012 -6.39826,-15.72288 -1.57188,-2.12608 -1.74625,-3.07351 -0.86779,-4.71494 1.68902,-3.15596 1.36931,-6.18805 -0.65062,-6.17038 -3.71796,0.0325 -4.75,1.72634 -4.75,7.79583 0,4.60415 0.32577,5.86059 1.5,5.78518 1.99756,-0.12827 4.89961,8.4905 4.95623,14.71942 0.0466,5.12241 -0.95316,7.80858 -4.25551,11.43426 -2.50713,2.7526 -1.75102,2.83399 3.08912,0.33252 z m -48.22693,-2.33252 2.93709,-3.25 -3.25,2.93709 c -3.02946,2.73778 -3.70965,3.56291 -2.93709,3.56291 0.1721,0 1.6346,-1.4625 3.25,-3.25 z m 29.43709,-2.25 c 1.86578,-1.925 3.16733,-3.5 2.89233,-3.5 -0.275,0 -2.02655,1.575 -3.89233,3.5 -1.86578,1.925 -3.16733,3.5 -2.89233,3.5 0.275,0 2.02655,-1.575 3.89233,-3.5 z m 15.37879,1.25 c 0.78369,-1.2375 1.73418,-3.73236 2.1122,-5.54414 0.74333,-3.56263 -1.13364,-13.20586 -2.57041,-13.20586 -0.74561,0 -4.92058,7.07924 -4.92058,8.34353 0,0.23276 0.89773,0.65797 1.99495,0.9449 4.15481,1.08651 3.2183,6.71157 -1.11739,6.71157 -1.83687,0 -2.64658,2.89765 -1.21089,4.33333 1.39501,1.39502 4.34356,0.57771 5.71212,-1.58333 z m -8.71651,-2 c -0.27741,-0.6875 -0.50439,-0.125 -0.50439,1.25 0,1.375 0.22698,1.9375 0.50439,1.25 0.27741,-0.6875 0.27741,-1.8125 0,-2.5 z m -68.91872,-5.15052 c 4.91095,-7.48062 11.06337,-21.12588 10.00328,-22.18597 -1.67477,-1.67477 -4.93835,2.67438 -9.95592,13.26756 -3.07898,6.50041 -5.89685,12.83143 -6.26192,14.06893 -1.30139,4.41131 1.41558,2.15954 6.21456,-5.15052 z m -21.37595,3.15052 c 5.77406,-2.24183 5.80373,-2.2747 8.17251,-9.0543 l 2.37742,-6.8043 -2.20877,0.67853 c -1.21482,0.37319 -2.24312,0.73512 -2.28511,0.8043 -0.042,0.0692 -1.08315,1.80025 -2.31368,3.84683 -1.23053,2.04659 -4.23368,5.47832 -6.67365,7.62607 -6.64801,5.85181 -6.08924,6.40516 2.93128,2.90287 z m 96.11668,-2.77542 c -0.30159,-0.48798 -1.24666,-0.61926 -2.10016,-0.29174 -1.21217,0.46515 -1.27033,0.76946 -0.26572,1.39034 1.5168,0.93744 3.15429,0.17707 2.36588,-1.0986 z m -147.35629,-2.47506 c -2.50619,-13.47081 0.0323,-22.79027 8.51963,-31.27759 l 5.34006,-5.34005 -5.10265,2.7772 c -13.07483,7.11622 -21.17101,25.62248 -14.76965,33.76049 2.5419,3.23149 6.609,3.28557 6.01261,0.0799 z m 167.99956,-1.24952 c 1.24387,-1.58606 1.2085,-1.62143 -0.37756,-0.37756 -0.9625,0.75485 -1.75,1.54235 -1.75,1.75 0,0.82304 0.82119,0.29331 2.12756,-1.37244 z m -34.65147,-11.53605 c 1.08685,-1.97731 1.65211,-3.91909 1.25613,-4.31506 -1.13158,-1.13158 -4.18155,2.17116 -7.27055,7.8731 l -2.83224,5.22801 3.43528,-2.59547 c 1.88941,-1.42751 4.32453,-4.21327 5.41138,-6.19058 z m -0.47609,5.78605 c 1.29175,-1.375 2.12363,-2.5 1.84863,-2.5 -0.275,0 -1.55688,1.125 -2.84863,2.5 -1.29175,1.375 -2.12363,2.5 -1.84863,2.5 0.275,0 1.55688,-1.125 2.84863,-2.5 z m -109.75,-32.16228 c -0.6875,-0.27741 -1.8125,-0.27741 -2.5,0 -0.6875,0.27741 -0.125,0.50439 1.25,0.50439 1.375,0 1.9375,-0.22698 1.25,-0.50439 z m 222.75,-16.671058 c 0,-0.733334 -0.2961,-1.629429 -0.65799,-1.991324 -0.90433,-0.904332 -3.45253,1.336814 -2.77198,2.437964 0.85211,1.37874 3.42997,1.043059 3.42997,-0.44664 z M 148.46739,93.226137 c 2.8209,-0.756389 4.7395,-1.959561 5.38545,-3.377257 1.36064,-2.986287 3.56487,-3.652164 6.25494,-1.889562 1.98692,1.301883 3.42737,1.25409 12.72243,-0.422118 5.765,-1.039622 15.04332,-2.20439 20.61848,-2.588373 5.57517,-0.383983 10.13667,-1.083821 10.13667,-1.555196 0,-0.471375 -0.43103,-0.857046 -0.95785,-0.857046 -0.52681,0 -2.2108,-2.1375 -3.74218,-4.75 -2.48153,-4.233403 -2.82423,-5.913668 -3.15106,-15.449674 -0.27885,-8.136149 0.0447,-12.007591 1.35035,-16.158669 3.5415,-11.259352 12.5867,-15.58665 18.57383,-8.88588 3.29439,3.687052 4.48883,8.63606 3.018,12.504629 -0.83168,2.187502 -1.67768,2.739594 -4.19801,2.739594 -3.11674,0 -3.14952,-0.05141 -2.60792,-4.089361 0.56304,-4.1978 -0.79579,-9.910639 -2.3573,-9.910639 -1.59616,0 -3.93526,5.850238 -4.76502,11.917596 -1.02629,7.504374 0.22003,18.268908 2.66078,22.981252 2.09269,4.040351 6.26592,6.134319 8.97915,4.505399 3.11424,-1.869668 6.10851,-9.784976 8.36245,-22.105983 2.10347,-11.498513 2.13421,-12.309914 0.53345,-14.078741 -2.26292,-2.50049 -2.15297,-5.906023 0.23188,-7.182357 1.94388,-1.040328 4.36644,0.353811 5.25692,3.025254 0.25773,0.773178 1.19382,0.720973 3.16338,-0.176418 2.27087,-1.034674 3.18503,-1.032436 4.85726,0.01189 1.23159,0.769136 2.30763,0.90697 2.67591,0.342767 0.33879,-0.519022 3.20348,-4.304057 6.36598,-8.41119 3.1625,-4.107132 5.75,-7.789453 5.75,-8.182936 0,-1.736315 -28.42084,3.23555 -38.5526,6.74429 -30.32177,10.500751 -48.96153,26.964944 -71.89847,63.506717 -2.31592,3.689586 -2.46155,4.282392 -0.90461,3.682269 1.02062,-0.393402 3.82759,-1.244019 6.23771,-1.890261 z M 164.765,83.427615 c -1.61928,-0.613162 -2.22357,-1.529481 -2,-3.032707 0.69104,-4.646451 6.82036,-5.106712 6.82036,-0.512153 0,3.235771 -1.91587,4.644689 -4.82036,3.54486 z m 3.32036,-2.960668 c 0,-0.771635 -0.7875,-1.554631 -1.75,-1.739991 -1.72374,-0.331962 -2.43634,1.789953 -1.0625,3.163796 1.04821,1.048207 2.8125,0.155048 2.8125,-1.423805 z m 4.90974,-7.304978 c -1.19844,-3.123085 0.0142,-5.125384 3.10396,-5.125384 2.65144,0 2.9863,0.336391 2.9863,3 0,2.530878 -0.43092,3.049566 -2.75569,3.316971 -1.75858,0.20228 -2.96514,-0.228875 -3.33457,-1.191587 z m 4.59026,-1.958717 c 0,-0.733334 -0.2961,-1.629429 -0.65799,-1.991324 -0.90433,-0.904332 -3.45253,1.336814 -2.77198,2.437964 0.85211,1.37874 3.42997,1.043059 3.42997,-0.44664 z m 5.33517,-7.235619 c -0.93376,-2.433324 0.9778,-4.931048 3.77382,-4.931048 1.99001,0 2.39101,0.503132 2.39101,3 0,2.530878 -0.43092,3.049566 -2.75569,3.316971 -1.87637,0.215829 -2.96419,-0.226402 -3.40914,-1.385923 z m 5.16483,-1.500686 c 0,-0.771635 -0.7875,-1.554631 -1.75,-1.739991 -1.72374,-0.331962 -2.43634,1.789953 -1.0625,3.163796 1.04821,1.048207 2.8125,0.155048 2.8125,-1.423805 z m -28.94615,28.982506 c 1.03052,-1.667419 -1.28721,-3.57951 -2.66672,-2.2 -1.15392,1.153924 -0.43172,3.287132 1.11287,3.287132 0.48508,0 1.18431,-0.48921 1.55385,-1.087132 z m 235.44615,-6.853851 c 0,-1.350368 -1.82294,-2.286482 -3.01631,-1.548936 -0.55897,0.345464 -0.75742,1.047021 -0.44098,1.559017 0.75067,1.214616 3.45729,1.206724 3.45729,-0.01008 z M 217.35005,79.929328 c 2.67163,-2.580046 2.91381,-3.00719 0.85045,-1.5 -3.7646,2.749868 -5.80702,2.658122 -9.47166,-0.425469 -4.359,-3.667852 -5.61863,-8.367 -5.6204,-20.967274 -0.001,-9.192261 0.35721,-11.780615 2.18146,-15.75 1.21881,-2.652011 2.86018,-4.75 3.71618,-4.75 2.69794,0 4.81571,4.559374 4.42128,9.518647 -0.32543,4.091826 -0.15703,4.528169 1.64776,4.269485 1.6721,-0.239665 1.99539,-1.007476 1.92198,-4.564598 -0.0674,-3.265539 -0.76171,-4.979387 -2.9371,-7.25 -4.6222,-4.824541 -9.71374,-3.36148 -13.37229,3.842548 -6.20931,12.22671 -4.61627,32.20792 3.08445,38.687642 4.44352,3.738978 8.93643,3.371356 13.57789,-1.110981 z M 346.4619,63.620425 c 6.66864,-4.528588 7.55173,-5.525412 6.74874,-7.61796 -0.43463,-1.132635 -1.12254,-0.90954 -3.23653,1.049641 -1.47652,1.368393 -4.64221,3.724698 -7.03488,5.236233 -3.81543,2.410349 -4.34272,3.178571 -4.2887,6.248246 0.053,3.012914 0.1834,3.197866 0.93677,1.328986 0.48135,-1.194057 3.57492,-4.004373 6.8746,-6.245146 z M 261.58536,53.278768 c 3.575,-7.833201 7.54071,-15.219932 8.8127,-16.414959 2.18578,-2.053545 2.1995,-2.143176 0.25,-1.633369 -1.17414,0.307045 -2.0627,0.05839 -2.0627,-0.577224 0,-0.614147 -0.675,-1.116631 -1.5,-1.116631 -0.825,0 -1.5,0.686234 -1.5,1.524964 0,2.396457 -6.72853,15.142439 -9.23673,17.497316 -1.2448,1.168707 -1.81327,2.038512 -1.26327,1.9329 2.26832,-0.435567 2.33786,0.257271 0.46446,4.627725 -2.01164,4.692964 -2.55036,8.423202 -1.21446,8.409278 0.4125,-0.0043 3.675,-6.416799 7.25,-14.25 z m 71.63208,5.100875 c 1.02735,-1.141266 4.11792,-3.412034 6.86792,-5.04615 l 5,-2.971121 -3.86634,0.543115 c -2.12649,0.298714 -5.95149,1.980765 -8.5,3.737892 -4.90482,3.38173 -6.02479,6.399911 -3.85147,10.379163 1.01776,1.863467 1.15166,1.768001 1.79098,-1.276913 0.38004,-1.810026 1.53155,-4.224719 2.55891,-5.365986 z m -107.94897,4.969442 c -0.31922,-0.797733 -0.55618,-0.560776 -0.60416,0.604167 -0.0434,1.054166 0.19292,1.644791 0.52522,1.3125 0.33229,-0.332292 0.36781,-1.194792 0.0789,-1.916667 z M 339.9126,61.443219 c 5.4877,-3.634899 5.81834,-4.053045 4.67181,-5.908166 -0.74454,-1.204704 -1.2601,-1.197867 -3.60041,0.04775 -3.17348,1.689062 -8.39864,6.685313 -8.39864,8.030705 0,1.717461 2.637,0.936395 7.32724,-2.170289 z M 226.24764,58.286585 c -0.27741,-0.6875 -0.50439,-0.125 -0.50439,1.25 0,1.375 0.22698,1.9375 0.50439,1.25 0.27741,-0.6875 0.27741,-1.8125 0,-2.5 z m 98.59294,-5.416992 c 4.35481,-4.459321 5.83907,-6.644905 5.36017,-7.8929 -0.98285,-2.561258 -13.33323,9.006856 -13.49819,12.643225 -0.1291,2.845699 1.11459,4.80956 1.72835,2.729167 0.21296,-0.721875 3.09732,-4.087647 6.40967,-7.479492 z m -87.21888,5.710616 c -1.25019,-0.790737 -1.28665,-1.95795 -0.25,-8.003247 1.68554,-9.829295 1.58678,-12.043642 -0.53634,-12.025064 -2.11294,0.01849 -5.47849,1.94555 -3.43945,1.969374 1.01472,0.01186 1.16404,1.539025 0.66149,6.765313 -0.73174,7.609799 0.50433,12.258405 3.25321,12.234687 1.47674,-0.01274 1.52898,-0.170759 0.31109,-0.941063 z m 77.56857,-10.259236 c 5.15286,-5.508823 5.43046,-8.171193 0.88654,-8.502502 -1.6453,-0.119963 -2.42895,0.03004 -1.74145,0.333333 1.92206,0.847934 1.54591,1.979818 -2.35734,7.093341 -1.98403,2.599226 -4.01225,5.790882 -4.50715,7.092569 -1.33207,3.5036 0.0941,4.792086 1.7568,1.587211 0.78772,-1.518333 3.47089,-4.940112 5.9626,-7.603952 z m -64.60491,7.486721 c -0.825,-0.314049 -1.83061,-1.066022 -2.23469,-1.671053 -1.07855,-1.614937 -0.925,-6.600056 0.20331,-6.600056 0.53273,0 0.70649,-0.683082 0.38611,-1.51796 -0.67518,-1.759515 1.25912,-7.126492 3.55996,-9.877549 1.50452,-1.798908 1.47064,-1.835338 -0.66469,-0.714816 -1.2375,0.649381 -2.93118,2.220307 -3.76374,3.490945 -2.1077,3.216766 -6.75846,15.291584 -5.34552,13.878643 0.87216,-0.872166 1.62445,-0.556205 3.07927,1.293306 1.05883,1.346087 2.90499,2.411905 4.10257,2.368484 1.48824,-0.05396 1.70265,-0.259676 0.67742,-0.649944 z m -23.33772,-3.521109 c -0.27741,-0.6875 -0.50439,-0.125 -0.50439,1.25 0,1.375 0.22698,1.9375 0.50439,1.25 0.27741,-0.6875 0.27741,-1.8125 0,-2.5 z m 63.58772,2.218838 c -1.32704,-0.533406 -2.25,-1.761624 -2.25,-2.99417 0,-2.803391 4.50788,-10.932139 7.61115,-13.724668 2.09657,-1.886624 2.21305,-2.25 0.72125,-2.25 -2.13939,0 -14.07687,12.251844 -12.46196,12.790146 0.62126,0.207086 1.12956,1.213504 1.12956,2.236483 0,2.058373 3.58901,5.008892 5.97251,4.909985 0.90727,-0.03765 0.6139,-0.430604 -0.72251,-0.967776 z m -15.21024,-0.923101 c -1.26906,-0.802713 -1.25211,-1.160744 0.12941,-2.734687 6.05644,-6.899966 6.64642,-17.508011 0.95839,-17.232103 -1.03633,0.05027 -1.17348,0.262174 -0.37756,0.583334 3.76666,1.51988 -1.50874,16.406928 -6.75,19.048328 -2.3385,1.178518 -2.177,1.259871 2.5,1.259336 3.44523,-3.93e-4 4.54593,-0.28778 3.53976,-0.924208 z m -2.44675,-8.418274 c 4.98092,-10.697376 1.29913,-11.900849 -4.59657,-1.502487 -3.11749,5.49837 -3.43657,6.541376 -1.87635,6.133368 1.05263,-0.275267 1.87991,0.02576 1.87991,0.684042 0,2.321067 2.24966,-0.28219 4.59301,-5.314923 z m 6.53455,4.622537 c 1.24387,-1.586056 1.2085,-1.621426 -0.37756,-0.377555 -1.66575,1.306369 -2.19548,2.127555 -1.37244,2.127555 0.20765,0 0.99515,-0.7875 1.75,-1.75 z m -51.46528,-2.5 c -0.27741,-0.6875 -0.50439,-0.125 -0.50439,1.25 0,1.375 0.22698,1.9375 0.50439,1.25 0.27741,-0.6875 0.27741,-1.8125 0,-2.5 z m 2.17457,-6.604875 c -0.53135,-0.195181 -1.37588,-1.432681 -1.87672,-2.75 -0.50085,-1.317319 -1.37177,-2.395125 -1.93538,-2.395125 -1.58186,0 -1.21384,2.873106 0.69161,5.39921 1.26292,1.6743 2.02944,1.988177 2.90148,1.188108 0.68793,-0.631163 0.77981,-1.236196 0.21901,-1.442193 z m 24.16315,-2.502921 c 0,-1.270543 -0.4619,-0.703236 -1.91971,2.357796 -1.12265,2.357268 -1.10183,2.389176 0.36454,0.55887 0.85535,-1.067621 1.55517,-2.380121 1.55517,-2.916666 z m 43.5,2.357796 c 0.99549,-1.1 1.30606,-2 0.69017,-2 -0.61589,0 -1.60147,0.9 -2.19017,2 -0.5887,1.1 -0.89928,2 -0.69017,2 0.20911,0 1.19468,-0.9 2.19017,-2 z m 39.00332,-3.005377 c 0.33809,-0.547043 0.32728,-1.4597 -0.024,-2.028128 -0.58535,-0.94708 -4.47932,2.944387 -4.47932,4.476418 0,0.837719 3.72359,-1.186661 4.50332,-2.44829 z m -25.12832,-0.994623 c -0.18099,-4.343768 -0.25969,-4.515306 -1.50178,-3.273216 -1.15948,1.159473 -0.42922,6.273216 0.89583,6.273216 0.40202,0 0.6747,-1.35 0.60595,-3 z m -163.375,292.712095 c -1.54215,-0.77628 -2.61878,-2.2778 -2.81003,-3.91899 -0.23263,-1.99639 -1.01806,-2.81607 -3.14631,-3.28351 -3.91014,-0.85881 -6.40236,-3.85283 -5.80561,-6.97455 0.40638,-2.12584 0.10906,-2.53504 -1.84193,-2.53504 -2.9018,0 -9.39612,-5.5679 -9.39612,-8.05576 0,-1.75434 -0.24216,-1.77023 -4.75,-0.31184 -9.221,2.98322 -9.44783,2.97704 -9.07913,-0.24731 0.36955,-3.23183 5.05999,-6.16321 10.32913,-6.45537 l 3,-0.16635 -2.8943,-0.63168 c -3.89475,-0.85004 -7.19475,-5.25669 -5.80127,-7.74672 0.87258,-1.5592 0.54839,-1.9931 -2.13794,-2.86143 -6.66941,-2.15583 -3.57203,-8.0386 4.9889,-9.47529 l 4.84461,-0.81301 -5,-0.1232 c -2.75,-0.0678 -6.71672,-0.5999 -8.81493,-1.18255 -11.495738,-3.19221 -9.54807,-13.92949 2.52671,-13.92949 4.12895,0 5.423,0.48093 7.86514,2.92308 3.31188,3.31188 3.54877,4.31275 1.43581,6.06635 -1.8159,1.50707 -4.51273,0.63573 -4.51273,-1.45805 0,-1.61573 -3.54522,-2.02793 -7.75,-0.90109 -4.8193,1.29152 -1.56043,3.58976 6.58186,4.6417 3.47968,0.44956 4.65457,0.18277 5.97224,-1.35617 1.95844,-2.28728 6.02417,-2.52691 6.83916,-0.40309 0.31927,0.83201 0.009,2.20108 -0.689,3.04239 -0.96157,1.15861 -0.9887,1.81044 -0.11188,2.68726 1.52558,1.52558 1.47628,4.43335 -0.0924,5.4486 -0.6875,0.44496 -4.175,1.07572 -7.75,1.40168 -6.43811,0.58701 -6.41404,0.59415 2.52749,0.75 6.34306,0.11055 9.68839,0.62024 11.25,1.71404 2.56956,1.79979 2.95825,5.94699 0.64072,6.83631 -2.60139,0.99825 -8.93785,0.68735 -10.12183,-0.49663 -0.76013,-0.76013 -1.66497,-0.78948 -2.90715,-0.0943 -3.14546,1.76029 5.46795,3.48872 10.79294,2.16579 6.58617,-1.63625 6.95793,-1.61275 8.17944,0.51694 0.62611,1.09163 1.92589,2.57965 2.88839,3.30671 1.77045,1.33737 2.33427,5.80004 0.98469,7.79397 -0.40408,0.59701 -1.63469,1.59849 -2.73469,2.22551 -1.58588,0.90398 -0.70331,1.01182 4.26241,0.52078 5.1993,-0.51413 6.59983,-0.3139 8.25,1.17948 2.24929,2.03558 2.55998,4.51638 0.78759,6.28877 -0.89306,0.89306 -0.90206,1.2 -0.0352,1.2 0.64065,0 1.64648,-0.9 2.23518,-2 1.27574,-2.38374 5.79489,-2.69809 6.65267,-0.46275 0.32444,0.84548 -0.13968,2.34341 -1.03139,3.32874 -0.8917,0.98532 -1.62128,2.44343 -1.62128,3.24024 0,0.79682 -0.6426,2.36619 -1.42799,3.4875 -1.35589,1.9358 -1.27371,2.0161 1.6274,1.59031 4.21585,-0.61876 3.29494,1.91708 -1.27452,3.50952 -4.49749,1.56735 -8.83461,1.57409 -11.92489,0.0185 z m 8.61241,-4.2433 c 2.38116,-3.63412 1.16616,-4.01314 -1.46338,-0.45649 -1.2149,1.64323 -1.75581,2.9877 -1.20202,2.9877 0.55379,0 1.75321,-1.13904 2.6654,-2.53121 z m -4.17005,-0.37553 c 0.30822,-0.49871 -0.34022,-0.67122 -1.44098,-0.38337 -2.33499,0.61061 -2.63015,1.29011 -0.5604,1.29011 0.79254,0 1.69316,-0.40803 2.00138,-0.90674 z m 2.05764,-3.09326 c 0.33992,-0.55 0.14148,-1 -0.44098,-1 -0.58246,0 -1.05902,0.45 -1.05902,1 0,0.55 0.19844,1 0.44098,1 0.24254,0 0.7191,-0.45 1.05902,-1 z m -4.5,-1 c 0,-0.55 -0.7875,-0.99311 -1.75,-0.98469 -1.49555,0.0131 -1.5319,0.15626 -0.25,0.98469 1.88721,1.21961 2,1.21961 2,0 z m 1.5,-3 c 1.50483,-0.64665 0.82396,-0.87683 -2.75,-0.92971 -2.6125,-0.0387 -5.07625,-0.10404 -5.475,-0.14529 -0.39875,-0.0412 -0.88625,0.40875 -1.08333,1 -0.42792,1.28374 6.368,1.3385 9.30833,0.075 z m 7.88156,-0.55194 c 0.34149,-0.88992 0.17385,-1.29132 -0.39301,-0.94098 -0.5437,0.33602 -0.98855,1.0344 -0.98855,1.55194 0,1.43843 0.71677,1.12146 1.38156,-0.61096 z m -10.38156,-6.56713 c 1.70679,-0.57302 1.07222,-0.65274 -2,-0.25126 -2.475,0.32344 -5.2875,1.28382 -6.25,2.13419 -3.032,2.67876 -1.90244,3.28826 2,1.07918 2.0625,-1.16753 4.875,-2.50048 6.25,-2.96211 z m 1.26903,4.46313 c -0.67703,-0.27392 -2.02703,-0.29059 -3,-0.0371 -0.97297,0.25354 -0.41903,0.47766 1.23097,0.49804 1.65,0.0204 2.44606,-0.18706 1.76903,-0.46099 z m -18.5011,-6.34406 c -0.68696,-1.1 -1.66052,-2 -2.16346,-2 -0.50295,0 -0.1,0.9 0.89553,2 0.99549,1.1 1.96904,2 2.16346,2 0.19442,0 -0.20857,-0.9 -0.89553,-2 z m 4.96124,0.39583 c -0.3323,-0.33229 -1.1948,-0.36781 -1.91667,-0.0789 -0.79773,0.31922 -0.56078,0.55618 0.60417,0.60416 1.05416,0.0434 1.64479,-0.19293 1.3125,-0.52522 z m 4.41005,-4.30975 c 3.46195,-2.80665 2.00408,-2.97986 -3.10111,-0.36844 -3.87324,1.98125 -4.11873,2.28236 -1.86078,2.28236 1.4306,0 3.66345,-0.86126 4.96189,-1.91392 z m -4.48636,-2.17082 c 2.63974,-0.97098 3.99439,-2.91526 2.03116,-2.91526 -3.82511,0 -7.85682,1.45436 -8.77196,3.16431 -0.91604,1.71164 -0.73893,1.83279 1.78552,1.22147 1.54133,-0.37325 3.77121,-1.03498 4.95528,-1.47052 z m 1.18843,-6.93914 c 0.30975,-0.92923 -0.10102,-1.06296 -1.45484,-0.47363 -1.03755,0.45166 -3.57395,1.02063 -5.63645,1.26439 -2.0625,0.24375 -3.75,0.76076 -3.75,1.1489 0,0.38814 -2.70428,1.51577 -6.00951,2.50585 -10.86412,3.25431 -7.13447,3.27599 4.77036,0.0277 6.40686,-1.74813 11.84306,-3.76109 12.08044,-4.47324 z m -6.59129,-4.6384 c -0.6875,-0.27741 -1.8125,-0.27741 -2.5,0 -0.6875,0.27741 -0.125,0.50439 1.25,0.50439 1.375,0 1.9375,-0.22698 1.25,-0.50439 z m -7.25,-3.1695 c 1.375,-0.58582 3.4,-1.26112 4.5,-1.50067 1.1,-0.23955 0.0104,-0.48775 -2.42126,-0.55155 -2.84583,-0.0747 -5.07289,0.47372 -6.25,1.53899 -2.32437,2.10352 -2.37333,3.63948 -0.0787,2.47016 0.9625,-0.4905 2.875,-1.37111 4.25,-1.95693 z m 7.26903,1.17584 c -0.67703,-0.27392 -2.02703,-0.29059 -3,-0.0371 -0.97297,0.25354 -0.41903,0.47766 1.23097,0.49804 1.65,0.0204 2.44606,-0.18706 1.76903,-0.46099 z m -12.53986,-3.94823 c -0.3323,-0.33229 -1.1948,-0.36781 -1.91667,-0.0789 -0.79773,0.31922 -0.56078,0.55618 0.60417,0.60416 1.05416,0.0434 1.64479,-0.19293 1.3125,-0.52522 z m 6.27083,-5.39583 c 1.87342,-1.2107 -4.21959,-1.2107 -8,0 -2.07256,0.66375 -1.7306,0.81506 2,0.88501 2.475,0.0464 5.175,-0.35185 6,-0.88501 z m -4.27083,-5.60417 c -0.3323,-0.33229 -1.1948,-0.36781 -1.91667,-0.0789 -0.79773,0.31922 -0.56078,0.55618 0.60417,0.60416 1.05416,0.0434 1.64479,-0.19293 1.3125,-0.52522 z m 4.39839,-2.14583 c 1.24387,-1.58606 1.2085,-1.62143 -0.37756,-0.37756 -1.66575,1.30637 -2.19548,2.12756 -1.37244,2.12756 0.20765,0 0.99515,-0.7875 1.75,-1.75 z m -12.15505,-7.33595 c 3.72364,-0.0707 4.0764,-0.22295 1.98683,-0.85753 -3.86831,-1.17478 -8.87192,-0.0884 -10.0919,2.19118 -1.03574,1.93529 -0.98774,1.94997 1.25024,0.38243 1.28003,-0.89657 4.3647,-1.66881 6.85483,-1.71608 z"
       id="path1311" />
  </g>
</svg>
